<?xml version="1.0" encoding="UTF-8"?>
<svg id="Ebene_1" data-name="Ebene 1" xmlns="http://www.w3.org/2000/svg" viewBox="0 0 145 145">
  <defs>
    <style>
      .cls-1 {
        fill: #fff;
        stroke-width: 0px;
      }
    </style>
  </defs>
  <g id="b70MIg.tif">
    <g>
      <path class="cls-1" d="M114.28,75.45c-.21,1.47-.38,2.95-.65,4.41-2.07,11.18-7.78,20.08-16.97,26.72-5.88,4.25-12.48,6.81-19.7,7.46-14.38,1.29-26.49-3.46-36.08-14.28-5.43-6.13-8.62-13.36-9.76-21.46-3.03-21.38,11.04-41.78,32.06-46.5,1.87-.42,3.8-.59,5.7-.88.18-.03.36-.1.53-.15,2.01,0,4.02,0,6.04,0,1.34.18,2.69.32,4.02.55,9.4,1.67,17.37,5.98,23.83,13.01,5.46,5.94,8.91,12.89,10.33,20.84.26,1.46.44,2.94.65,4.41v5.87ZM72.57,33.54c-21.41-.06-38.94,17.4-39.03,38.85-.09,21.44,17.35,38.98,38.87,39.09,21.39.11,38.99-17.42,39.08-38.9.09-21.42-17.43-38.98-38.93-39.04Z"/>
      <path class="cls-1" d="M36.31,72.52c0-19.99,16.23-36.22,36.22-36.21,19.97,0,36.22,16.27,36.2,36.24-.02,19.98-16.27,36.19-36.26,36.16-19.95-.03-36.15-16.24-36.15-36.2ZM39.12,72.48c-.07,18.34,14.86,33.39,33.34,33.41,18.42.02,33.38-14.73,33.43-33.31.06-18.41-14.71-33.39-33.37-33.45-18.39-.06-33.33,14.9-33.41,33.35Z"/>
      <path class="cls-1" d="M72.48,82.34c-1.12,2.73-2.18,5.3-3.23,7.87-1.04,2.53-2.05,5.08-3.11,7.59-.69,1.62-2.38,2.65-4.01,2.55-1.82-.12-3.32-1.29-3.84-3.02-.29-.97-.21-1.92.17-2.86,2.18-5.52,4.31-11.05,6.52-16.56.8-1.98.51-4.01.5-6.03,0-.65-.58-1.01-1.25-1.07-2.11-.2-4.22-.4-6.32-.59-1.89-.17-3.79-.3-5.68-.52-2.11-.25-3.77-2.28-3.62-4.33.17-2.35,2.02-4.13,4.31-3.98,3.03.19,6.06.47,9.09.78,5.9.6,11.8.84,17.72.28,4.05-.38,8.11-.73,12.17-1.05,2.44-.19,4.38,1.56,4.52,4,.13,2.23-1.63,4.15-3.96,4.35-3.73.32-7.46.66-11.19,1-1.4.13-1.66.53-1.76,1.91-.18,2.58.38,4.96,1.37,7.34,2,4.8,3.84,9.67,5.72,14.52.86,2.23-.09,4.53-2.19,5.44-2.19.96-4.61-.04-5.57-2.34-2-4.8-3.97-9.61-5.96-14.42-.1-.24-.21-.47-.38-.85ZM53.02,64.19c-.91-.03-1.52.45-1.56,1.29-.04.86.54,1.4,1.57,1.49,3.81.33,7.63.66,11.44,1.01,1.87.17,3.54,1.47,3.75,3.21.3,2.53.43,5.09-.55,7.55-.98,2.47-1.94,4.94-2.91,7.41-1.24,3.15-2.48,6.3-3.71,9.46-.31.8-.02,1.55.67,1.85.71.3,1.45,0,1.82-.76.07-.15.12-.3.18-.45,2-4.86,4-9.72,6.02-14.57.19-.47.42-.96.76-1.33,1.37-1.5,3.77-1.03,4.6.92,1.23,2.89,2.4,5.81,3.6,8.72.91,2.2,1.83,4.41,2.73,6.61.26.62.72,1.06,1.36.91.46-.11.98-.48,1.2-.89.17-.32.02-.9-.14-1.31-1.95-5.02-3.84-10.08-5.94-15.04-1.12-2.64-1.4-5.33-1.26-8.11.12-2.32,1.63-3.95,3.9-4.17,3.24-.31,6.49-.57,9.74-.86.76-.07,1.52-.12,2.26-.28.73-.16,1.06-.71,1-1.46-.06-.68-.59-1.16-1.32-1.19-.24-.01-.49,0-.73.03-4.51.42-9.02.92-13.54,1.23-5.62.39-11.24.08-16.84-.52-2.67-.29-5.35-.49-8.11-.74Z"/>
      <path class="cls-1" d="M80.87,51.67c-.03,4.64-3.71,8.31-8.34,8.31-4.66,0-8.38-3.73-8.35-8.38.03-4.67,3.77-8.36,8.43-8.31,4.65.06,8.3,3.75,8.27,8.38ZM72.53,57.18c3.05,0,5.54-2.51,5.54-5.56,0-3.05-2.51-5.54-5.56-5.53-3.04,0-5.54,2.51-5.54,5.56,0,3.04,2.51,5.54,5.56,5.54Z"/>
    </g>
  </g>
</svg>