<?xml version="1.0" encoding="UTF-8"?>
<svg id="Ebene_1" data-name="Ebene 1" xmlns="http://www.w3.org/2000/svg" xmlns:xlink="http://www.w3.org/1999/xlink" viewBox="0 0 158.59 46.99">
  <defs>
    <style>
      .cls-1 {
        fill: url(#Unbenannter_Verlauf_2);
      }

      .cls-1, .cls-2, .cls-3, .cls-4 {
        stroke-width: 0px;
      }

      .cls-2 {
        fill: #a6a6a6;
      }

      .cls-3 {
        fill: #fff;
      }

      .cls-4 {
        fill: #010101;
      }
    </style>
    <linearGradient id="Unbenannter_Verlauf_2" data-name="Unbenannter Verlauf 2" x1="-53.28" y1="-34.97" x2="-53.28" y2="-27.82" gradientTransform="translate(1380.9 -782.39) scale(23.74 -23.72)" gradientUnits="userSpaceOnUse">
      <stop offset="0" stop-color="#1b1b1b" stop-opacity=".1"/>
      <stop offset=".12" stop-color="#202121" stop-opacity=".15"/>
      <stop offset=".31" stop-color="#353535" stop-opacity=".23"/>
      <stop offset=".53" stop-color="#585858" stop-opacity=".32"/>
      <stop offset=".78" stop-color="#868686" stop-opacity=".42"/>
      <stop offset="1" stop-color="#b4b4b4" stop-opacity=".51"/>
    </linearGradient>
  </defs>
  <path class="cls-3" d="M157.54,41.44c0,2.49-2.02,4.5-4.5,4.5,0,0,0,0,0,0H5.56c-2.49,0-4.51-2.01-4.51-4.5V5.55c0-2.49,2.02-4.51,4.51-4.51h147.47c2.49,0,4.51,2.02,4.51,4.51h0s0,35.89,0,35.89h0Z"/>
  <path class="cls-2" d="M153.03,46.99H5.56c-3.07,0-5.55-2.48-5.56-5.55V5.55C0,2.49,2.49,0,5.56,0h147.47c3.07,0,5.55,2.49,5.56,5.55v35.89c0,3.06-2.5,5.55-5.56,5.55h0Z"/>
  <path class="cls-4" d="M157.54,41.44c0,2.49-2.02,4.5-4.5,4.5,0,0,0,0,0,0H5.56c-2.49,0-4.51-2.01-4.51-4.5V5.55c0-2.49,2.02-4.51,4.51-4.51h147.47c2.49,0,4.51,2.02,4.51,4.51h0s0,35.89,0,35.89h0Z"/>
  <path class="cls-3" d="M35.41,23.25c-.03-3.79,3.1-5.63,3.25-5.72-1.78-2.59-4.53-2.94-5.5-2.97-2.31-.24-4.55,1.38-5.73,1.38s-3.01-1.36-4.97-1.32c-2.52.04-4.87,1.49-6.16,3.76-2.66,4.61-.68,11.38,1.87,15.11,1.28,1.83,2.77,3.86,4.72,3.79,1.91-.08,2.62-1.22,4.93-1.22s2.95,1.22,4.94,1.17c2.05-.03,3.34-1.83,4.57-3.67,1.48-2.09,2.07-4.15,2.09-4.26-.05-.02-3.98-1.52-4.02-6.06h0ZM31.65,12.11c1.03-1.28,1.73-3.03,1.54-4.8-1.49.07-3.35,1.03-4.42,2.28-.95,1.11-1.79,2.92-1.58,4.63,1.67.12,3.39-.84,4.46-2.11Z"/>
  <path class="cls-1" d="M153.03,0h-78.99l30.94,46.99h48.05c3.07,0,5.55-2.49,5.56-5.55V5.55c0-3.07-2.49-5.55-5.56-5.55Z"/>
  <path class="cls-3" d="M63.08,37.02h-2.67l-1.46-4.59h-5.08l-1.39,4.59h-2.6l5.04-15.64h3.11l5.06,15.64h0ZM58.5,30.5l-1.32-4.08c-.14-.42-.4-1.4-.79-2.95h-.05c-.16.67-.4,1.65-.74,2.95l-1.3,4.08h4.2ZM76,31.24c0,1.92-.52,3.43-1.56,4.55-.93.99-2.09,1.49-3.48,1.49-1.49,0-2.57-.53-3.22-1.6v5.92h-2.51v-12.14c0-1.2-.03-2.44-.09-3.71h2.2l.14,1.79h.05c.84-1.35,2.1-2.02,3.81-2.02,1.33,0,2.44.53,3.33,1.58.89,1.05,1.33,2.44,1.33,4.16h0ZM73.45,31.33c0-1.1-.25-2-.74-2.72-.54-.74-1.27-1.11-2.18-1.11-.62,0-1.18.21-1.68.61-.5.41-.83.95-.99,1.61-.07.25-.11.5-.12.76v1.88c0,.82.25,1.51.75,2.08.5.56,1.16.85,1.96.85.94,0,1.68-.37,2.2-1.09.53-.73.79-1.69.79-2.88ZM88.98,31.24c0,1.92-.52,3.43-1.56,4.55-.93.99-2.09,1.49-3.48,1.49-1.49,0-2.57-.53-3.22-1.6v5.92h-2.51v-12.14c0-1.2-.03-2.44-.09-3.71h2.2l.14,1.79h.05c.83-1.35,2.1-2.02,3.81-2.02,1.33,0,2.44.53,3.33,1.58.89,1.05,1.33,2.44,1.33,4.16h0ZM86.42,31.33c0-1.1-.25-2-.74-2.72-.54-.74-1.27-1.11-2.18-1.11-.62,0-1.18.21-1.68.61-.5.41-.83.95-.98,1.61-.08.31-.12.56-.12.76v1.88c0,.82.25,1.51.75,2.08.5.56,1.16.85,1.96.85.95,0,1.68-.37,2.2-1.09.53-.73.79-1.69.79-2.88ZM103.48,32.63c0,1.33-.47,2.41-1.39,3.25-1.02.91-2.44,1.37-4.26,1.37-1.68,0-3.03-.32-4.05-.97l.58-2.09c1.1.65,2.31.98,3.62.98.95,0,1.68-.21,2.2-.64.53-.43.79-.99.79-1.7,0-.64-.22-1.17-.65-1.6-.43-.43-1.15-.84-2.16-1.21-2.74-1.02-4.11-2.51-4.11-4.48,0-1.28.48-2.33,1.45-3.16.97-.82,2.25-1.23,3.84-1.23,1.42,0,2.61.25,3.55.74l-.63,2.04c-.89-.48-1.89-.72-3.01-.72-.88,0-1.58.22-2.07.65-.42.39-.63.86-.63,1.42,0,.62.24,1.13.72,1.53.42.37,1.18.77,2.27,1.21,1.35.54,2.34,1.18,2.97,1.9.64.73.96,1.63.96,2.71h0ZM111.79,27.62h-2.76v5.47c0,1.39.49,2.09,1.46,2.09.45,0,.82-.04,1.11-.12l.07,1.9c-.49.18-1.14.28-1.95.28-.99,0-1.76-.3-2.32-.91-.56-.6-.84-1.62-.84-3.04v-5.68h-1.65v-1.88h1.65v-2.06l2.46-.74v2.81h2.76v1.88h0ZM124.22,31.29c0,1.73-.5,3.16-1.49,4.27-1.04,1.15-2.41,1.72-4.13,1.72s-2.97-.55-3.96-1.65c-.98-1.1-1.47-2.48-1.47-4.15s.51-3.18,1.52-4.29c1.01-1.11,2.38-1.67,4.1-1.67s2.98.55,3.99,1.65c.96,1.06,1.44,2.44,1.44,4.13h0ZM121.63,31.35c0-1.03-.22-1.92-.67-2.66-.53-.9-1.28-1.34-2.25-1.34s-1.77.45-2.3,1.34c-.45.74-.67,1.64-.67,2.71s.22,1.92.67,2.66c.54.9,1.3,1.34,2.28,1.34s1.71-.46,2.25-1.37c.46-.76.69-1.65.69-2.69h0ZM132.37,27.95c-.26-.05-.53-.07-.79-.07-.88,0-1.56.33-2.04,1-.42.59-.63,1.33-.63,2.23v5.92h-2.51v-7.72c0-1.18-.02-2.37-.07-3.55h2.18l.09,2.16h.07c.27-.74.68-1.34,1.25-1.79.52-.39,1.16-.6,1.81-.6.23,0,.44.02.63.05v2.39s0,0,0,0ZM143.58,30.85c0,.38-.02.76-.09,1.14h-7.52c.03,1.11.39,1.97,1.09,2.55.63.52,1.45.79,2.46.79,1.11,0,2.13-.18,3.04-.53l.39,1.74c-1.07.47-2.33.7-3.78.7-1.75,0-3.12-.51-4.12-1.54-1-1.03-1.5-2.41-1.5-4.14s.46-3.12,1.39-4.24c.97-1.21,2.29-1.81,3.94-1.81s2.86.6,3.69,1.81c.66.96.99,2.14.99,3.55h0ZM141.19,30.2c.02-.74-.15-1.38-.49-1.93-.43-.7-1.1-1.05-2-1.05-.82,0-1.49.34-1.99,1.02-.42.54-.67,1.19-.74,1.95h5.22s0,0,0,0Z"/>
  <path class="cls-3" d="M53.14,15.85c-.7,0-1.3-.03-1.8-.09v-7.56c.7-.11,1.41-.16,2.12-.16,2.87,0,4.2,1.41,4.2,3.72,0,2.66-1.56,4.09-4.52,4.09ZM53.56,9.01c-.39,0-.72.02-.99.08v5.75c.15.02.43.03.83.03,1.88,0,2.95-1.07,2.95-3.08,0-1.79-.97-2.78-2.8-2.78ZM61.78,15.91c-1.62,0-2.67-1.21-2.67-2.85s1.07-2.93,2.76-2.93c1.6,0,2.67,1.15,2.67,2.84s-1.11,2.94-2.76,2.94ZM61.83,11.03c-.89,0-1.46.83-1.46,2s.58,1.97,1.45,1.97,1.45-.89,1.45-2-.57-1.97-1.44-1.97h0ZM73.78,10.24l-1.73,5.54h-1.13l-.72-2.41c-.18-.59-.33-1.19-.45-1.79h-.02c-.09.6-.26,1.21-.44,1.79l-.76,2.41h-1.14l-1.63-5.54h1.27l.63,2.63c.15.63.27,1.22.38,1.78h.02c.09-.47.24-1.05.46-1.77l.79-2.65h1l.75,2.59c.18.63.33,1.24.45,1.82h.03c.08-.57.21-1.18.38-1.82l.67-2.59h1.21ZM80.16,15.78h-1.23v-3.18c0-.98-.38-1.47-1.12-1.47s-1.23.63-1.23,1.36v3.3h-1.23v-3.96c0-.49-.01-1.02-.05-1.59h1.08l.06.86h.03c.33-.59,1-.97,1.76-.97,1.16,0,1.93.89,1.93,2.34v3.32s0,0,0,0ZM83.56,15.78h-1.23V7.7h1.23v8.08ZM88.05,15.91c-1.62,0-2.67-1.21-2.67-2.85s1.07-2.93,2.76-2.93c1.6,0,2.67,1.15,2.67,2.84,0,1.73-1.11,2.94-2.76,2.94ZM88.09,11.03c-.89,0-1.46.83-1.46,2s.58,1.97,1.45,1.97,1.45-.89,1.45-2c0-1.13-.57-1.97-1.44-1.97h0ZM95.67,15.78l-.09-.64h-.03c-.38.51-.93.76-1.62.76-.99,0-1.7-.7-1.7-1.63,0-1.37,1.19-2.08,3.24-2.08v-.1c0-.73-.39-1.1-1.15-1.1-.55,0-1.03.14-1.45.41l-.25-.81c.51-.32,1.15-.48,1.9-.48,1.45,0,2.18.76,2.18,2.29v2.04c0,.56.02.99.08,1.32h-1.11s0,0,0,0ZM95.5,13.02c-1.37,0-2.05.33-2.05,1.12,0,.58.35.87.85.87.63,0,1.21-.48,1.21-1.13v-.86ZM102.68,15.78l-.06-.89h-.03c-.35.67-.95,1.02-1.78,1.02-1.34,0-2.33-1.18-2.33-2.83s1.03-2.95,2.43-2.95c.74,0,1.27.25,1.56.75h.02v-3.18h1.23v6.59c0,.54.01,1.04.05,1.49h-1.1ZM102.5,12.52c0-.78-.51-1.44-1.3-1.44-.91,0-1.47.81-1.47,1.95s.58,1.88,1.45,1.88c.77,0,1.32-.67,1.32-1.47v-.92h0ZM111.55,15.91c-1.62,0-2.67-1.21-2.67-2.85s1.07-2.93,2.76-2.93c1.6,0,2.67,1.15,2.67,2.84,0,1.73-1.1,2.94-2.76,2.94h0ZM111.59,11.03c-.89,0-1.46.83-1.46,2s.58,1.97,1.45,1.97,1.45-.89,1.45-2c0-1.13-.57-1.97-1.44-1.97h0ZM120.93,15.78h-1.23v-3.18c0-.98-.38-1.47-1.12-1.47s-1.23.63-1.23,1.36v3.3h-1.23v-3.96c0-.49-.01-1.02-.05-1.59h1.08l.06.86h.03c.33-.59,1-.97,1.76-.97,1.16,0,1.93.89,1.93,2.34v3.32ZM129.22,11.17h-1.36v2.69c0,.69.24,1.03.72,1.03.22,0,.4-.02.55-.06l.03.94c-.24.09-.56.14-.96.14-.97,0-1.55-.54-1.55-1.94v-2.79h-.81v-.92h.81v-1.02l1.21-.37v1.38h1.36v.92h0ZM135.74,15.78h-1.23v-3.16c0-.99-.37-1.49-1.12-1.49-.64,0-1.23.43-1.23,1.31v3.34h-1.23V7.7h1.23v3.33h.02c.39-.6.95-.9,1.67-.9,1.17,0,1.89.91,1.89,2.36v3.3h0ZM142.42,13.31h-3.7c.02,1.05.72,1.64,1.75,1.64.55,0,1.05-.09,1.49-.26l.19.86c-.52.23-1.14.34-1.86.34-1.73,0-2.76-1.1-2.76-2.79s1.05-2.98,2.62-2.98c1.42,0,2.3,1.05,2.3,2.63,0,.19,0,.37-.04.56h0ZM141.29,12.43c0-.86-.43-1.46-1.22-1.46-.71,0-1.27.62-1.35,1.46h2.57Z"/>
</svg>