<?xml version="1.0" encoding="UTF-8"?>
<svg id="Ebene_1" data-name="Ebene 1" xmlns="http://www.w3.org/2000/svg" viewBox="0 0 40 40">
  <defs>
    <style>
      .cls-1 {
        fill: #ed6e20;
        stroke-width: 0px;
      }
    </style>
  </defs>
  <g id="YQfe2Y.tif">
    <g>
      <path class="cls-1" d="M22.62,16.02c0-1.22-.03-2.41.01-3.6.02-.5.42-.83.92-.91.23-.04.47-.06.71-.06.84-.01,1.68,0,2.52-.02.55,0,.74-.2.74-.75,0-1.27,0-2.55,0-3.82,0-.67-.15-.83-.82-.83-1.11,0-2.23,0-3.34,0-1.16,0-2.28.21-3.32.74-2.26,1.17-3.2,3.15-3.35,5.58-.06,1.02-.02,2.05-.02,3.07,0,.21,0,.43,0,.67-.16,0-.29,0-.41,0-.99,0-1.98,0-2.96,0-.64,0-.83.18-.83.83,0,1.35,0,2.71,0,4.06,0,.64.19.82.84.83.99,0,1.98,0,2.96,0,.12,0,.24,0,.39,0,0,.18,0,.31,0,.45,0,3.62,0,7.24,0,10.86,0,.7.17.86.87.86,1.31,0,2.61,0,3.92,0,1.02,0,1.12-.11,1.12-1.14,0-3.54,0-7.08,0-10.62,0-.14.01-.29.02-.46.16,0,.28,0,.4,0,1.23,0,2.45,0,3.68,0,.54,0,.7-.17.7-.69,0-1.43,0-2.87,0-4.3,0-.53-.21-.74-.75-.74-.97,0-1.93,0-2.9,0-.37,0-.75,0-1.12,0Z"/>
      <path class="cls-1" d="M22.62,16.02c.37,0,.75,0,1.12,0,.97,0,1.93,0,2.9,0,.54,0,.75.21.75.74,0,1.43,0,2.87,0,4.3,0,.52-.16.69-.7.69-1.23,0-2.45,0-3.68,0-.12,0-.25,0-.4,0,0,.17-.02.32-.02.46,0,3.54,0,7.08,0,10.62,0,1.03-.11,1.14-1.12,1.14-1.31,0-2.61,0-3.92,0-.7,0-.87-.16-.87-.86,0-3.62,0-7.24,0-10.86,0-.13,0-.27,0-.45-.15,0-.27,0-.39,0-.99,0-1.98,0-2.96,0-.65,0-.84-.19-.84-.83,0-1.35,0-2.71,0-4.06,0-.65.19-.83.83-.83.99,0,1.98,0,2.96,0,.12,0,.24,0,.41,0,0-.24,0-.46,0-.67,0-1.02-.04-2.05.02-3.07.15-2.43,1.1-4.42,3.35-5.58,1.04-.54,2.16-.74,3.32-.74,1.11,0,2.23,0,3.34,0,.67,0,.81.16.82.83,0,1.27,0,2.55,0,3.82,0,.54-.19.74-.74.75-.84.01-1.68,0-2.52.02-.24,0-.48.02-.71.06-.5.09-.9.42-.92.91-.04,1.19-.01,2.38-.01,3.6Z"/>
    </g>
  </g>
</svg>