<?xml version="1.0" encoding="UTF-8"?>
<svg id="Ebene_1" data-name="Ebene 1" xmlns="http://www.w3.org/2000/svg" viewBox="0 0 40 40">
  <defs>
    <style>
      .cls-1 {
        stroke: #fff;
        stroke-miterlimit: 10;
        stroke-width: 2px;
      }

      .cls-1, .cls-2 {
        fill: #ed6e21;
      }

      .cls-2 {
        stroke-width: 0px;
      }
    </style>
  </defs>
  <g id="hDyTW5.tif">
    <g>
      <path class="cls-2" d="M24.78,34.98l-9.65-.03c-.15-.02-.31-.04-.46-.05-1.03-.1-2.09-.11-3.1-.33-3.37-.75-5.43-2.86-6.19-6.23-.32-1.43-.32-2.88-.33-4.33-.02-2.69,0-5.38.02-8.07.02-1.47.05-2.94.36-4.39.71-3.34,3.2-5.7,6.56-6.26,1.39-.23,2.79-.25,4.19-.26,2.29-.02,4.58,0,6.87.01,1.69.01,3.39,0,5.07.3,3.61.64,6.11,3.17,6.66,6.94.07.48.12.96.17,1.44l-.04,12.46c-.02.08-.04.17-.05.25-.06.55-.1,1.11-.19,1.65-.26,1.48-.83,2.83-1.83,3.98-1.61,1.86-3.73,2.63-6.11,2.81-.65.05-1.3.08-1.95.11ZM19.98,32.32s0-.04,0-.06c1.24,0,2.48.03,3.71,0,1.34-.03,2.69.01,4.02-.25,2.1-.42,3.51-1.62,4.14-3.7.31-1.01.36-2.05.37-3.09.04-3,.05-6,.05-9.01,0-1.29.01-2.59-.24-3.87-.43-2.19-1.69-3.63-3.87-4.2-1.26-.33-2.55-.33-3.83-.35-2.31-.04-4.62-.03-6.93-.03-1.65,0-3.3-.06-4.93.23-2.24.4-3.72,1.66-4.32,3.9-.29,1.08-.32,2.18-.33,3.27-.03,3.21-.04,6.41-.03,9.62,0,.95.08,1.91.23,2.85.23,1.49.95,2.71,2.23,3.55,1,.65,2.13.91,3.3.96,2.14.09,4.28.13,6.43.18Z"/>
      <path class="cls-1" d="M28.03,13.82c1,0,1.81-.79,1.81-1.78,0-.99-.8-1.8-1.79-1.81-.99-.01-1.8.8-1.8,1.79,0,1.01.78,1.8,1.78,1.8Z"/>
      <path class="cls-2" d="M12.32,19.98c0-4.24,3.5-7.71,7.74-7.69,4.24.02,7.68,3.48,7.68,7.72,0,4.22-3.48,7.69-7.71,7.69-4.24,0-7.71-3.48-7.71-7.72ZM19.98,24.98c2.77.01,5-2.18,5.02-4.93.02-2.77-2.18-5.01-4.92-5.03-2.78-.02-5.02,2.18-5.03,4.94-.01,2.76,2.18,5,4.93,5.01Z"/>
      <path class="cls-2" d="M28.03,13.82c-1,0-1.79-.8-1.78-1.8,0-1,.81-1.8,1.8-1.79.99.01,1.8.83,1.79,1.81,0,1-.81,1.79-1.81,1.78Z"/>
    </g>
  </g>
</svg>