<?xml version="1.0" encoding="UTF-8"?>
<svg id="Ebene_1" data-name="Ebene 1" xmlns="http://www.w3.org/2000/svg" viewBox="0 0 145 145">
  <defs>
    <style>
      .cls-1 {
        fill: #fff;
        stroke-width: 0px;
      }
    </style>
  </defs>
  <g id="SCHm8n.tif">
    <g>
      <path class="cls-1" d="M95.96,59.21c3.28,0,6.45,0,9.62,0,.53,0,1.07.02,1.59.12,3.49.71,5.82,3.56,5.86,7.13,0,.11,0,.22,0,.34,0,12.85,0,25.7,0,38.56,0,4.6-3.06,7.67-7.66,7.67-21.6,0-43.2,0-64.79,0-4.23,0-7.55-2.64-8.41-6.71-.15-.71-.16-1.45-.16-2.18,0-21.09.03-42.18-.03-63.27-.01-5,3.36-8.1,6.78-8.71.71-.13,1.45-.15,2.18-.15,15.35,0,30.71,0,46.06,0,4.52,0,7.77,2.42,8.72,6.54.18.79.23,1.62.23,2.42.02,5.71.01,11.42.01,17.13v1.13ZM89.59,59.14h3.11c.02-.17.04-.28.04-.39,0-6.1.04-12.21-.01-18.31-.03-3.19-2.19-5.23-5.36-5.23-15.58,0-31.16.03-46.74-.03-2.93-.01-5.44,2.29-5.43,5.46.06,21.23.05,42.46,0,63.7,0,3.03,2.21,5.51,5.5,5.5,12.63-.03,25.25-.01,37.88-.01.23,0,.46-.03.8-.06-1.68-2.45-1.06-5.18-1.26-7.84h-1.06c-12.2,0-24.41,0-36.61,0-1.62,0-2.13-.51-2.13-2.1,0-7.28,0-14.57,0-21.85,0-1.24.66-2.05,1.64-2.02.98.03,1.55.76,1.55,2,0,6.58,0,13.16,0,19.74,0,.33,0,.65,0,.97h36.6c.03-.14.05-.22.05-.3,0-5.82.01-11.64-.01-17.46,0-.31-.21-.69-.44-.92-3.76-3.79-7.55-7.57-11.33-11.34-.14-.14-.31-.25-.56-.44,0,.45,0,.76,0,1.06-.04.98-.64,1.62-1.55,1.63-.91.01-1.6-.61-1.63-1.57-.04-1.69-.03-3.37,0-5.06.02-.87.6-1.57,1.44-1.6,1.8-.06,3.6-.07,5.4,0,.9.03,1.46.79,1.42,1.67-.04.87-.66,1.45-1.61,1.49-.32.01-.65,0-.83,0,3.23,3.23,6.49,6.49,9.72,9.72,0-.19,0-.5,0-.8,0-2.7-.02-5.4,0-8.1.03-3.79,2.4-6.66,6.04-7.33.7-.13,1.43-.09,2.14-.13v-15.39h-44.84v.99c0,6.5,0,12.99,0,19.49,0,.25.01.51,0,.76-.05.75-.59,1.35-1.29,1.45-.8.12-1.48-.24-1.75-.98-.11-.31-.14-.66-.14-.99,0-7.31,0-14.62,0-21.94,0-1.46.58-2.05,2.05-2.05,15.75,0,31.5,0,47.24,0,1.42,0,1.99.57,1.99,1.99,0,5.23,0,10.46,0,15.69v.96ZM81.37,72.09c0,2.13-.03,4.18.02,6.22.01.44.22.99.53,1.3,2.93,2.99,5.91,5.94,8.87,8.9.17.17.35.33.65.61,0-.62-.02-1.06,0-1.5.04-.92.66-1.56,1.52-1.59.9-.03,1.64.6,1.66,1.54.04,1.83.03,3.66,0,5.48-.02.9-.65,1.55-1.56,1.56-1.83.03-3.66.03-5.48,0-.94-.02-1.57-.75-1.54-1.65.03-.86.67-1.49,1.58-1.53.46-.02.91,0,1.25,0-2.51-2.51-5-5-7.51-7.51,0,.18,0,.42,0,.66,0,5.09.02,10.18-.02,15.27,0,.77.2.99.98.98,8.86-.03,17.71-.02,26.57-.02.3,0,.59,0,.88,0v-28.73h-28.42ZM109.87,104.11h-28.46c0,.73-.06,1.41.01,2.07.23,2.13,1.8,3.63,3.93,3.64,6.83.03,13.66.03,20.49,0,2,0,3.53-1.34,3.89-3.31.14-.76.1-1.55.15-2.4ZM109.82,68.8c0-.97.07-1.87-.01-2.75-.21-2.09-1.83-3.64-3.85-3.64-6.92-.02-13.84-.02-20.75,0-1.68,0-3.3,1.22-3.64,2.86-.23,1.13-.17,2.32-.25,3.53h28.5Z"/>
      <path class="cls-1" d="M66.82,106.66c.9,0,1.63-.7,1.63-1.57,0-.84-.76-1.61-1.62-1.61-.87,0-1.61.73-1.61,1.6,0,.9.69,1.58,1.6,1.58ZM41.49,71.2c-.01-.9-.72-1.57-1.64-1.54-.86.02-1.55.71-1.55,1.56,0,.85.78,1.63,1.62,1.62.88,0,1.58-.75,1.57-1.64Z"/>
      <path class="cls-1" d="M97.19,106.84c-.01-.9-.72-1.58-1.62-1.56-.88.02-1.6.76-1.58,1.62.02.87.77,1.58,1.64,1.57.89-.02,1.57-.72,1.55-1.63Z"/>
      <path class="cls-1" d="M95.6,63.99c-1.18,0-2.36-.01-3.54,0-1.25.02-1.95.6-1.97,1.59-.01,1.03.7,1.64,1.99,1.65,1.66.02,3.31,0,4.97,0,.87,0,1.74.03,2.6-.06,1.03-.11,1.58-.93,1.39-1.91-.14-.76-.77-1.24-1.75-1.26-1.23-.03-2.47,0-3.7,0Z"/>
      <path class="cls-1" d="M66.82,106.66c-.91,0-1.61-.69-1.6-1.58,0-.88.74-1.61,1.61-1.6.86,0,1.62.77,1.62,1.61,0,.87-.73,1.57-1.63,1.57Z"/>
      <path class="cls-1" d="M41.49,71.2c.01.9-.69,1.63-1.57,1.64-.84,0-1.62-.78-1.62-1.62,0-.85.69-1.54,1.55-1.56.92-.02,1.62.64,1.64,1.54Z"/>
      <path class="cls-1" d="M97.19,106.84c.01.9-.66,1.61-1.55,1.63-.88.02-1.62-.69-1.64-1.57-.02-.87.7-1.61,1.58-1.62.9-.02,1.6.67,1.62,1.56Z"/>
      <path class="cls-1" d="M95.6,63.99c1.23,0,2.47-.02,3.7,0,.99.02,1.61.5,1.75,1.26.19.99-.36,1.8-1.39,1.91-.86.09-1.74.06-2.6.06-1.66,0-3.31.01-4.97,0-1.29-.01-2.01-.62-1.99-1.65.01-.99.72-1.57,1.97-1.59,1.18-.02,2.36,0,3.54,0Z"/>
    </g>
  </g>
</svg>