<?xml version="1.0" encoding="UTF-8"?>
<svg xmlns="http://www.w3.org/2000/svg" xmlns:xlink="http://www.w3.org/1999/xlink" viewBox="0 0 550 600">
  <defs>
    <style>
      .cls-1 {
        opacity: .48;
      }

      .cls-1, .cls-2, .cls-3, .cls-4, .cls-5, .cls-6, .cls-7, .cls-8, .cls-9, .cls-10, .cls-11, .cls-12, .cls-13, .cls-14, .cls-15, .cls-16, .cls-17, .cls-18, .cls-19, .cls-20, .cls-21, .cls-22, .cls-23, .cls-24, .cls-25, .cls-26, .cls-27, .cls-28, .cls-29, .cls-30, .cls-31, .cls-32, .cls-33, .cls-34, .cls-35, .cls-36, .cls-37, .cls-38, .cls-39, .cls-40, .cls-41, .cls-42, .cls-43, .cls-44, .cls-45, .cls-46, .cls-47, .cls-48, .cls-49, .cls-50, .cls-51, .cls-52 {
        stroke-width: 0px;
      }

      .cls-1, .cls-2, .cls-45, .cls-51 {
        fill: #fff;
      }

      .cls-1, .cls-2, .cls-53 {
        mix-blend-mode: soft-light;
      }

      .cls-2, .cls-54, .cls-53 {
        opacity: .5;
      }

      .cls-3 {
        fill: url(#linear-gradient-28);
        opacity: .1;
      }

      .cls-3, .cls-35, .cls-36 {
        mix-blend-mode: multiply;
      }

      .cls-55 {
        clip-path: url(#clippath);
      }

      .cls-4 {
        fill: none;
      }

      .cls-5 {
        fill: url(#linear-gradient);
      }

      .cls-6 {
        fill: url(#linear-gradient-38);
      }

      .cls-7 {
        fill: url(#linear-gradient-33);
      }

      .cls-8 {
        fill: url(#linear-gradient-29);
      }

      .cls-9 {
        fill: url(#linear-gradient-32);
      }

      .cls-10 {
        fill: url(#linear-gradient-30);
      }

      .cls-11 {
        fill: url(#linear-gradient-31);
      }

      .cls-12 {
        fill: url(#linear-gradient-36);
      }

      .cls-13 {
        fill: url(#linear-gradient-39);
      }

      .cls-14 {
        fill: url(#linear-gradient-34);
      }

      .cls-15 {
        fill: url(#linear-gradient-37);
      }

      .cls-16 {
        fill: url(#linear-gradient-35);
      }

      .cls-17 {
        fill: url(#linear-gradient-25);
      }

      .cls-18 {
        fill: url(#linear-gradient-11);
      }

      .cls-19 {
        fill: url(#linear-gradient-12);
      }

      .cls-20 {
        fill: url(#linear-gradient-13);
      }

      .cls-21 {
        fill: url(#linear-gradient-10);
      }

      .cls-22 {
        fill: url(#linear-gradient-17);
      }

      .cls-23 {
        fill: url(#linear-gradient-16);
      }

      .cls-24 {
        fill: url(#linear-gradient-19);
      }

      .cls-25 {
        fill: url(#linear-gradient-15);
      }

      .cls-26 {
        fill: url(#linear-gradient-23);
      }

      .cls-27 {
        fill: url(#linear-gradient-21);
      }

      .cls-28 {
        fill: url(#linear-gradient-18);
      }

      .cls-29 {
        fill: url(#linear-gradient-14);
      }

      .cls-30 {
        fill: url(#linear-gradient-22);
      }

      .cls-31 {
        fill: url(#linear-gradient-20);
      }

      .cls-32 {
        fill: url(#linear-gradient-27);
      }

      .cls-33 {
        fill: url(#linear-gradient-24);
      }

      .cls-34 {
        fill: url(#linear-gradient-26);
      }

      .cls-35, .cls-36, .cls-45 {
        opacity: .3;
      }

      .cls-35, .cls-48 {
        fill: #d8dee8;
      }

      .cls-36, .cls-46 {
        fill: #a2a7ae;
      }

      .cls-37 {
        fill: url(#linear-gradient-4);
      }

      .cls-38 {
        fill: url(#linear-gradient-2);
      }

      .cls-39 {
        fill: url(#linear-gradient-3);
      }

      .cls-40 {
        fill: url(#linear-gradient-8);
      }

      .cls-41 {
        fill: url(#linear-gradient-9);
      }

      .cls-42 {
        fill: url(#linear-gradient-7);
      }

      .cls-43 {
        fill: url(#linear-gradient-5);
      }

      .cls-44 {
        fill: url(#linear-gradient-6);
      }

      .cls-56 {
        isolation: isolate;
      }

      .cls-47 {
        fill: #26274f;
      }

      .cls-49 {
        fill: #98a6b7;
      }

      .cls-50 {
        fill: #ee77ab;
      }

      .cls-52 {
        fill: #f5f7fa;
      }
    </style>
    <linearGradient id="linear-gradient" x1="87.24" y1="340.2" x2="339.14" y2="340.2" gradientUnits="userSpaceOnUse">
      <stop offset="0" stop-color="#444c8d"/>
      <stop offset="1" stop-color="#26274f"/>
    </linearGradient>
    <linearGradient id="linear-gradient-2" x1="97.59" y1="338.54" x2="330.62" y2="338.54" gradientUnits="userSpaceOnUse">
      <stop offset="0" stop-color="#cc90bf"/>
      <stop offset="1" stop-color="#7c6fb1"/>
    </linearGradient>
    <linearGradient id="linear-gradient-3" y1="437.05" x2="466.71" y2="437.05" xlink:href="#linear-gradient"/>
    <linearGradient id="linear-gradient-4" x1="111.9" y1="278.37" x2="399.82" y2="278.37" gradientUnits="userSpaceOnUse">
      <stop offset="0" stop-color="#ac336e"/>
      <stop offset="1" stop-color="#7a2e3e"/>
    </linearGradient>
    <linearGradient id="linear-gradient-5" x1="281.58" y1="154.87" x2="161.42" y2="351.31" gradientUnits="userSpaceOnUse">
      <stop offset="0" stop-color="#f28e86"/>
      <stop offset="1" stop-color="#e874aa"/>
    </linearGradient>
    <linearGradient id="linear-gradient-6" x1="200.22" y1="202.52" x2="157.89" y2="562.34" gradientUnits="userSpaceOnUse">
      <stop offset="0" stop-color="#ee7058"/>
      <stop offset="1" stop-color="#fcc345"/>
    </linearGradient>
    <linearGradient id="linear-gradient-7" x1="190.68" y1="246.83" x2="161.38" y2="495.91" gradientUnits="userSpaceOnUse">
      <stop offset="0" stop-color="#fcc345"/>
      <stop offset="1" stop-color="#ee7058"/>
    </linearGradient>
    <linearGradient id="linear-gradient-8" x1="207.85" y1="258.39" x2="178.13" y2="511" xlink:href="#linear-gradient-7"/>
    <linearGradient id="linear-gradient-9" x1="-932.57" y1="-314.79" x2="-990.39" y2="-244.59" gradientTransform="translate(1205.4 236.88) rotate(-19.24)" xlink:href="#linear-gradient-6"/>
    <linearGradient id="linear-gradient-10" x1="2674.56" y1="187.86" x2="2616.74" y2="258.05" gradientTransform="translate(-1787.57 -1508.53) rotate(37.02)" xlink:href="#linear-gradient-6"/>
    <linearGradient id="linear-gradient-11" x1="5192.25" y1="-3840.78" x2="5134.43" y2="-3770.59" gradientTransform="translate(-1139.81 -6051.24) rotate(114.13)" xlink:href="#linear-gradient-6"/>
    <linearGradient id="linear-gradient-12" x1="2803.07" y1="305.95" x2="2850.83" y2="305.95" gradientTransform="translate(3188.52) rotate(-180) scale(1 -1)" gradientUnits="userSpaceOnUse">
      <stop offset="0" stop-color="#9080ba"/>
      <stop offset="1" stop-color="#5961a9"/>
    </linearGradient>
    <linearGradient id="linear-gradient-13" x1="2803.07" y1="305.95" x2="2847.53" y2="305.95" xlink:href="#linear-gradient-12"/>
    <clipPath id="clippath">
      <path class="cls-4" d="M290.23,416.21l20.69-.45,20.11,12.29c.5.31.33,1.2-.24,1.22l-18.54.41-22.03-13.46Z"/>
    </clipPath>
    <linearGradient id="linear-gradient-14" x1="2737" y1="329.67" x2="2760.92" y2="329.67" gradientTransform="translate(3188.52) rotate(-180) scale(1 -1)" gradientUnits="userSpaceOnUse">
      <stop offset="0" stop-color="#6c3976"/>
      <stop offset="1" stop-color="#311b44"/>
    </linearGradient>
    <linearGradient id="linear-gradient-15" x1="2761.97" y1="330.92" x2="2865.12" y2="373.34" gradientTransform="translate(3188.52) rotate(-180) scale(1 -1)" xlink:href="#linear-gradient-5"/>
    <linearGradient id="linear-gradient-16" x1="-898.26" y1="1598.91" x2="-885.06" y2="1598.91" gradientTransform="translate(1370.82 -1070.91) rotate(6.55)" xlink:href="#linear-gradient"/>
    <linearGradient id="linear-gradient-17" x1="-2721.91" y1="288.11" x2="-2717.37" y2="278.72" gradientTransform="translate(3034.11 194.22) rotate(1.38)" xlink:href="#linear-gradient-7"/>
    <linearGradient id="linear-gradient-18" x1="2038.92" y1="-204.44" x2="2079.42" y2="-255.72" gradientTransform="translate(2416.77 247.79) rotate(169.96) scale(1 -1)" xlink:href="#linear-gradient-14"/>
    <linearGradient id="linear-gradient-19" x1="-1586.47" y1="870.87" x2="-1572.7" y2="870.87" gradientTransform="translate(1865.74 -499.07) rotate(-1.88)" xlink:href="#linear-gradient"/>
    <linearGradient id="linear-gradient-20" x1="-3092.78" y1="-99.25" x2="-3087.54" y2="-110.09" gradientTransform="translate(3407.58 216.04) rotate(-5.69)" xlink:href="#linear-gradient-7"/>
    <linearGradient id="linear-gradient-21" x1="-4225.78" y1="366.07" x2="-4180.05" y2="430.67" gradientTransform="translate(4584.15)" xlink:href="#linear-gradient-14"/>
    <linearGradient id="linear-gradient-22" x1="1669.64" y1="-762.07" x2="1670.91" y2="-795.99" gradientTransform="translate(2234.92 316.14) rotate(156.5) scale(1 -1)" xlink:href="#linear-gradient-7"/>
    <linearGradient id="linear-gradient-23" x1="-1894.1" y1="617.38" x2="-1903.61" y2="593.23" gradientTransform="translate(2321.69 -241.74) rotate(3.04)" gradientUnits="userSpaceOnUse">
      <stop offset="0" stop-color="#311b44"/>
      <stop offset="1" stop-color="#6c3976"/>
    </linearGradient>
    <linearGradient id="linear-gradient-24" x1="117.12" y1="657.18" x2="116.72" y2="689.17" gradientTransform="translate(582.62 -382.91) rotate(-173.45) scale(1 -1)" xlink:href="#linear-gradient-7"/>
    <linearGradient id="linear-gradient-25" x1="2819.62" y1="422.26" x2="2847.73" y2="422.26" xlink:href="#linear-gradient-14"/>
    <linearGradient id="linear-gradient-26" x1="2824.06" y1="421.76" x2="2840.78" y2="421.76" gradientTransform="translate(3188.52) rotate(-180) scale(1 -1)" xlink:href="#linear-gradient-5"/>
    <linearGradient id="linear-gradient-27" x1="-37.32" y1="344.38" x2="-49.95" y2="476.25" gradientTransform="translate(444.09 -50.09) rotate(6.96)" xlink:href="#linear-gradient"/>
    <linearGradient id="linear-gradient-28" x1="-3862.84" y1="-44.39" x2="-3887.64" y2="61.37" gradientTransform="translate(4329.18 424.15) rotate(6.96)" xlink:href="#linear-gradient"/>
    <linearGradient id="linear-gradient-29" x1="2759.29" y1="312.61" x2="2817.19" y2="312.61" xlink:href="#linear-gradient-12"/>
    <linearGradient id="linear-gradient-30" x1="-6166.6" y1="320.01" x2="-6152.56" y2="405.82" gradientTransform="translate(6532.73)" xlink:href="#linear-gradient-7"/>
    <linearGradient id="linear-gradient-31" x1="2725.98" y1="392.74" x2="2814.62" y2="392.74" gradientTransform="translate(3188.52) rotate(-180) scale(1 -1)" xlink:href="#linear-gradient-5"/>
    <linearGradient id="linear-gradient-32" x1="2734.15" y1="392.2" x2="2801.57" y2="392.2" gradientTransform="translate(3188.52) rotate(-180) scale(1 -1)" xlink:href="#linear-gradient-5"/>
    <linearGradient id="linear-gradient-33" x1="2728.29" y1="392.23" x2="2809.25" y2="392.23" xlink:href="#linear-gradient-14"/>
    <linearGradient id="linear-gradient-34" x1="2871" y1="366.56" x2="2953.8" y2="302.77" gradientTransform="translate(3247.65 173.86) rotate(-175.95) scale(1 -1)" xlink:href="#linear-gradient-7"/>
    <linearGradient id="linear-gradient-35" x1="241.95" y1="209.53" x2="316.86" y2="141.55" gradientTransform="matrix(1,0,0,1,0,0)" xlink:href="#linear-gradient-12"/>
    <linearGradient id="linear-gradient-36" x1="360.91" y1="207.99" x2="430.44" y2="144.9" gradientTransform="matrix(1,0,0,1,0,0)" xlink:href="#linear-gradient-12"/>
    <linearGradient id="linear-gradient-37" x1="108.71" y1="209.86" x2="189.88" y2="136.2" gradientTransform="matrix(1,0,0,1,0,0)" xlink:href="#linear-gradient-12"/>
    <linearGradient id="linear-gradient-38" x1="87.39" y1="411.82" x2="209.3" y2="411.82" xlink:href="#linear-gradient-5"/>
    <linearGradient id="linear-gradient-39" x1="1634.58" y1="-19.69" x2="1729.1" y2="-19.69" gradientTransform="translate(-739.2 1860.45) rotate(-56.8)" xlink:href="#linear-gradient-12"/>
  </defs>
  <g class="cls-56">
    <g id="Ebene_1" data-name="Ebene 1">
      <g>
        <path class="cls-52" d="M455.03,269.24c-7.44-49.22-13.41-83.24-40.27-101.88-45.3-31.44-95.9,19.6-160.07-14.65-31.6-16.86-32.78-36.42-59.54-39.01-47.34-4.59-86.11,52.54-89.47,57.44-20.42,29.77-27.24,66.06-18.96,100.67,5.38,22.48,9.01,45.74,8.01,68.83-1.73,40.2-.74,77.71,37.84,101.69,34.45,21.4,77.8,40.28,119.16,43.59,28.11,2.25,59.63-1.39,86.72-8.79,138.06-37.71,126.81-140.2,116.58-207.88Z"/>
        <g>
          <path class="cls-47" d="M466.71,434.29l-379.47-3.23v9.57c0,2.6,1.66,4.81,3.9,5.2l107.3,18.85c1.27.22,2.56.28,3.85.18l260.3-21.49c2.32-.19,4.12-2.41,4.12-5.08v-4Z"/>
          <g>
            <path class="cls-47" d="M329,418.96l-237.84,17.51c-4.26.31-7.72-3.02-7.72-7.44v-177.11c0-4.42,3.46-8,7.72-8h237.84c3.51,0,6.34,3.24,6.34,7.24v160.11c0,4-2.83,7.44-6.34,7.7Z"/>
            <path class="cls-5" d="M332.8,418.96l-237.84,17.51c-4.26.31-7.72-3.02-7.72-7.44v-177.11c0-4.42,3.46-8,7.72-8h237.84c3.51,0,6.34,3.24,6.34,7.24v160.11c0,4-2.83,7.44-6.34,7.7Z"/>
            <path class="cls-38" d="M325.39,407.67l-221.52,15.21c-3.46.24-6.28-2.49-6.28-6.1v-155.06c0-3.61,2.81-6.55,6.28-6.56l221.52-.95c2.89-.01,5.23,2.64,5.23,5.93v141.23c0,3.29-2.34,6.11-5.23,6.31Z"/>
            <path class="cls-51" d="M222.28,248.76c0,1.65-1.22,2.98-2.74,2.99-1.51,0-2.74-1.33-2.74-2.98s1.23-2.99,2.74-2.99c1.51,0,2.74,1.33,2.74,2.98Z"/>
            <path class="cls-1" d="M94.96,436.46l236.64-17.42,1.2-.09c1.61-.12,3.07-.91,4.19-2.12-17.03-.93-27.61-6.97-34.43-13.22-13.7-12.54-11.33-24.91-26.1-33.15-18.43-10.28-32.92,2.75-46.9-10.11-8.48-7.79-4.32-13.61-14.75-25.25-11.55-12.9-19.08-8.56-30.69-20.18-14.68-14.68-7.34-26.1-19.99-36.64-15.34-12.79-31.89-.95-46.5-13.22-6.3-5.29-9.76-12.98-11.56-21.16h-11.11c-4.26,0-7.72,3.58-7.72,8v177.11c0,4.42,3.46,7.75,7.72,7.44Z"/>
          </g>
          <path class="cls-39" d="M342.28,417.99l-255.04,18.43,111.2,19.53c1.27.22,2.56.28,3.85.18l264.42-21.83-120.38-16.18c-1.35-.18-2.7-.22-4.06-.13Z"/>
          <polygon class="cls-47" points="124.45 436.57 336.78 421 402.49 429.76 192 446.41 124.45 436.57"/>
        </g>
        <g>
          <g>
            <path class="cls-37" d="M399.82,191.27v172.32c0,4.62-3.02,4.96-6.88,5.16l-95.83,6.06-173.84,10.98-2.32.15c-4.99.25-9.05-3.82-9.04-9.1l.12-181.97v-14.88c0-5.27,4.03-9.38,9.02-9.16l.32.02,64.7,2.8,206.88,8.97c3.86.17,6.88,4.05,6.88,8.66Z"/>
            <g>
              <path class="cls-51" d="M403.49,205.07v158.36c0,4.63-3.02,8.54-6.88,8.73l-98.98,4.97-173.09,8.69c-.44.02-.86,0-1.28-.03-4.38-.44-7.79-4.27-7.79-9.09l.09-180.9v-1.4l77.3,2.86,206.84,7.68,3.79.14Z"/>
              <path class="cls-43" d="M403.49,190.79v14.28l-3.77-.12-206.84-6.67-77.32-2.49v-1.4l.05-14.91c0-4.04,2.39-7.39,5.74-8.65,1.03-.39,2.16-.58,3.34-.53l61.01,2.65,210.9,9.16c3.86.17,6.88,4.05,6.88,8.68Z"/>
              <path class="cls-51" d="M136.59,183.11c0,2.33-1.78,4.15-3.97,4.07-2.2-.08-3.98-2.04-3.98-4.37,0-2.34,1.79-4.16,3.99-4.07,2.2.09,3.97,2.05,3.97,4.37Z"/>
            </g>
          </g>
          <g>
            <polygon class="cls-48" points="384.41 269.95 140.55 269.42 140.55 216.71 384.41 223.06 384.41 269.95"/>
            <polygon class="cls-48" points="244.91 362.77 140.55 367.16 140.55 290.29 244.91 289.53 244.91 362.77"/>
            <polygon class="cls-48" points="384.41 356.9 266.42 361.86 266.42 289.37 384.41 288.51 384.41 356.9"/>
          </g>
          <path class="cls-35" d="M297.67,377.13l-173.11,8.69c-.44.02-.87,0-1.29-.03l-2.32.15c-4.99.25-9.05-3.82-9.04-9.1l.12-181.97v-14.88c0-5.27,4.03-9.38,9.02-9.16l.32.02c1.03-.39,2.15-.58,3.33-.53l61.01,2.65c.13.22.24.45.36.68,3.26,6.18,6.03,14.05,6.83,23.61.03.34.05.69.07,1.03.7,10.31-.91,22.55-6.64,36.71-15.83,39.14,1.78,78.02,25.67,93.48.74.48,1.48.93,2.23,1.36,7.35,4.24,15.2,6.26,22.79,5.43,13.83-1.52,27.75,1.67,38.91,9.25,1.43.97,2.81,2.01,4.14,3.12,7.9,6.6,13.99,15.7,17.03,27.17.2.77.39,1.54.56,2.33Z"/>
        </g>
        <g>
          <g>
            <path class="cls-44" d="M229.48,265.06c-.63-.54-1.49-.69-2.27-.41l-52.09,18.98c-.77.28-1.33.95-1.47,1.75-.14.8.16,1.62.79,2.15l8.78,7.31s-.03.02-.05.03c-.29.23-.59.47-.87.72-5.23,4.6-10.47,9.19-15.7,13.79-5.95,5.23-11.9,10.46-17.85,15.69-.5.44-.78,1.08-.77,1.74,0,.67.31,1.29.82,1.72,10,8.39,19.96,16.75,29.88,25.08.08.07.17.13.25.18h0s3.34,2.96,6.68-1.41c-.92-.24-1.91-.54-2.6-.76,2.99-4.73,5.98-9.46,8.98-14.19,4.69-7.39,9.4-14.76,14.13-22.13.2-.31.38-.62.56-.93l9.26,7.71s.07.07.21.15c.18.12.38.21.58.27.72.25,1.93.4,3.71-.26,3.12-1.15,3.12-2.55,3.23-3.14.07-.34-1.87-.65-3.54-.85l10.1-51.03c.16-.81-.13-1.64-.75-2.18Z"/>
            <g>
              <path class="cls-42" d="M209.34,291.47c-5.19-4.32-14.89-3.27-22.22,2.22-.29.23-.59.47-.87.72-5.23,4.6-10.47,9.19-15.7,13.79-5.95,5.23-11.9,10.46-17.85,15.69-.5.44-.78,1.08-.77,1.74,0,.67.31,1.29.82,1.72,10,8.39,19.96,16.75,29.88,25.08.5.42,1.17.61,1.82.51s1.23-.48,1.58-1.04c3.3-5.22,6.6-10.44,9.91-15.65,4.69-7.39,9.4-14.76,14.13-22.13.2-.31.39-.63.58-.96,4.29-7.97,3.86-17.41-1.3-21.71Z"/>
              <path class="cls-40" d="M233.42,263.88c-.63-.54-1.49-.69-2.27-.41l-52.09,18.98c-.77.28-1.33.95-1.47,1.75-.14.8.16,1.62.79,2.15l41.5,34.57c.62.52,1.46.67,2.22.4.76-.27,1.32-.92,1.48-1.71l10.6-53.55c.16-.81-.13-1.64-.75-2.18Z"/>
            </g>
          </g>
          <g>
            <path class="cls-41" d="M225.25,245.74c1.13,6.54,1.32,11.98.47,12.3-.86.28-4.1-4.1-7.29-9.92-3.18-5.81-3.53-11.7-.62-12.73,2.92-1.01,6.31,3.82,7.44,10.35Z"/>
            <path class="cls-21" d="M248.78,251.84c-4.81,4.57-9.23,7.75-9.97,7.22-.72-.56,1.13-5.69,4.2-11.57,3.07-5.87,7.77-9.44,10.24-7.58,2.46,1.87.33,7.37-4.48,11.93Z"/>
            <path class="cls-18" d="M248.75,277.02c-5.53-3.67-9.62-7.27-9.26-8.1.39-.82,5.8-.17,12.21,1.52,6.41,1.68,10.93,5.47,9.68,8.29-1.27,2.81-7.11,1.96-12.63-1.7Z"/>
          </g>
        </g>
        <g>
          <g>
            <path class="cls-19" d="M340.61,318.22c1.41,2.36,3.7,5.31,6.61,5.41,5.66.19,10.04-10.6,11.53-14.26,6.48-15.95,3.02-28.37,9.79-34.36,3.88-3.43,8.28-3.99,8.28-3.99.31-.04,3.35-.36,4.58.26,16.73,8.5-22.58,110.75-43.72,51.15,3.53-1.67,2.23-3,2.92-4.22Z"/>
            <path class="cls-20" d="M362.34,319.45c.45-4.93-1.79-10.3,0-14.78,1.34-3.14,6.27-4.93,7.17-9.41.86-6.85-2.38-13.3-1.1-20.12.05-.04.09-.09.14-.13,3.88-3.43,8.28-3.99,8.28-3.99.31-.04,3.35-.36,4.58.26,15.89,8.07-18.79,100.77-40.43,58.89,5.1-3.44,11.65-4.63,17.32-7.15,1.34-.9,3.58-1.79,4.03-3.58Z"/>
          </g>
          <g>
            <path class="cls-46" d="M301.05,416.91c-.24,0-.48-.04-.71-.13-1.04-.39-1.57-1.56-1.18-2.6l18.44-48.96c2.3-6.11,8.44-9.94,14.95-9.28l20.25,2.02c1.11.11,1.92,1.1,1.81,2.21-.11,1.11-1.1,1.93-2.21,1.81l-20.25-2.02c-4.68-.46-9.11,2.28-10.77,6.69l-18.44,48.96c-.3.81-1.07,1.31-1.89,1.31Z"/>
            <g class="cls-56">
              <g class="cls-55">
                <path class="cls-46" d="M332.95,429.22l-19.93-12.18c-1.38-.84-2.89-1.26-4.41-1.23l-15.9.35c-.61.01-.79,1.08-.24,1.42l17.7,10.81c1.38.84,2.89,1.26,4.41,1.23l18.37-.4h0Z"/>
              </g>
            </g>
          </g>
          <g>
            <path class="cls-29" d="M429.62,357.02c-.11,0-.23,0-.34-.03-1.1-.19-1.84-1.23-1.65-2.33l7.52-44c.68-3.97,2.17-6.76,4.19-7.84,1.15-.62,2.43-.67,3.62-.15l7.36,3.24c1.02.45,1.49,1.64,1.04,2.66-.45,1.02-1.64,1.49-2.66,1.04l-7.36-3.24c-.39.07-1.59,1.4-2.2,4.97l-7.52,44c-.17.99-1.02,1.68-1.99,1.68Z"/>
            <g>
              <path class="cls-25" d="M346.7,376.37c14.58,4.45,33.39,4.12,45.9,4.88,12.51.77,13.79.38,20.75-4.31,6.96-4.69,9.08-9.13,11.19-17.42,4.52-17.78,6.88-38.01,9.62-56.53.42-2.88,12.04-4.4-.17-4.86-1.79-.07-29.36,1.92-30.39,2-8.01.56-6.83,1.7-7.36,4.7-2.98,16.86-5.57,37.32-8.55,53.09-1.86,9.84-6.12,13.59-14.63,14.85-8.1,1.2-15.35-2.56-23.19-4.67-2.35-.63-4.89.75-5.73,2.99-.83,2.23-.81,4.21,2.56,5.28Z"/>
              <path class="cls-49" d="M346.7,376.37c14.58,4.45,37.96,6.25,50.47,7.02,12.51.77,10.2-.78,17.15-5.47s8.11-10.1,10.22-18.39c4.52-17.78,6.88-38.01,9.62-56.53.42-2.88,12.04-4.4-.17-4.86-1.79-.07-29.36,1.92-30.39,2-8.01.56-6.83,1.7-7.36,4.7-2.98,16.86-5.57,37.32-8.55,53.09-1.86,9.84-6.12,13.59-14.63,14.85-8.1,1.2-15.35-2.56-23.19-4.67-2.35-.63-4.89.75-5.73,2.99-.83,2.23-.81,4.21,2.56,5.28Z"/>
              <path class="cls-49" d="M394.38,382.54c2.51.31,5.88.85,8.5.85,6.76,0,12.29-1.66,17.62-6.44,5.33-4.77,9.03-9.2,10.9-17.52,4-17.84,6.99-38.38,9.41-56.8.43-3.28-1.2-4.48-3.69-4.58-2.5-.1-4.57,1.28-5.06,4.47-2.75,17.94-5.3,39.01-9.39,56.08-2.55,10.65-9.36,15.01-18.67,15.99-2.7.28-6.12-.91-8.73-.76-2.61.15-3.97,1.68-4.2,3.98-.23,2.3.79,4.41,3.3,4.72Z"/>
              <path class="cls-36" d="M420.72,371.87c5.86-2.48,7.22-9.25,8.12-15.11,1.13-8.12-2.48-16.24.45-23.91.9-2.48,4.06-4.51,4.74-6.99,1.7-8.52-2.63-21.17,3-27.81.03,0,.06,0,.1,0,2.5.1,4.12,1.3,3.69,4.58-2.42,18.43-5.41,38.96-9.41,56.8-1.87,8.32-5.57,12.74-10.9,17.52-5.33,4.77-10.86,6.43-17.62,6.44-.21,0-.43,0-.65-.01.07-.08.15-.15.22-.23,5.19-5.64,11.28-8.57,18.27-11.28Z"/>
            </g>
          </g>
          <path class="cls-51" d="M417.92,272.18c-4.47-1.26-14.54-2.5-22.56-2.95-11.45-.65-17.18-.97-21.23,1.76-9.37,6.3-2.12,20.84-5.95,56.87-1.63,15.32-2.37,14.33,1.31,19.78,7.47,11.08,28.43,11.98,38.04,2.38,5.08-5.08,12.47,4.5,12.59-1.3.48-22.86,12.03-43.19-2.19-76.53Z"/>
          <g>
            <path class="cls-23" d="M308.52,415.42c.86,1.07.98,2.38-.22,3.19-1.2.81-2.95-.4-4.49-.7-1.65-.32-3.98-.26-5.68-1.15-.68-.36-2.22-.82-1.96-1.96.18-.8,2.51-.66,3.26-.73,1.07-.1,3.29-.46,4.11-.39,2.05.18,3.84.32,4.98,1.74Z"/>
            <path class="cls-22" d="M307.6,410.06c-.84,1.45-1.81,2.82-2.66,4.26.79.98,1.78,1.28,3.01,1.29,1.06-1.41,2.26-2.7,3.39-4.05-1.25-.49-2.5-.98-3.74-1.49Z"/>
            <path class="cls-28" d="M401.54,359.16c8.87,15.18-3.71,5.56-14.49,4.92-11.35-.67-40.03-2.46-49.69,10.63-7.19,9.74-6.03,25.25-17.6,34.43-2.04,1.62-5.2,3.5-7.44,4.45-2.5-1.22-4.46-3.19-7.2-3.91,1.13-17.23,3.84-28.06,13.29-43.72,2.29-3.78,12.11-14.36,17.37-17.16,14.22-7.55,57.56-3.65,65.74,10.35Z"/>
          </g>
          <g>
            <path class="cls-24" d="M321.8,421.78c.93,1.16.78,2.54-.43,3.46-1.21.92-3.16-.08-4.79-.27-1.75-.2-4.13.12-5.95-.69-.73-.32-2.28-.67-2-1.87.2-.84,2.63-.91,3.44-1.06,1.14-.22,3.57-.78,4.43-.8,2.16-.04,4.07-.29,5.3,1.24Z"/>
            <path class="cls-31" d="M321.52,415.98c-1.01,1.76-2.17,3.42-3.17,5.18.8.99,1.91,1.17,3.14,1.07,1.3-1.68,2.68-3.31,3.97-5.01-1.32-.4-2.63-.8-3.93-1.24Z"/>
            <path class="cls-27" d="M414.6,341.57c7.67,5.58,4.43,11.45,3.75,17.5-1.51,13.58-25.12,17.24-33.42,17.59-10.1.42-24.12-6.83-30.09-4.11-9.27,4.23-8.91,32.45-20.69,42.38-2.02,1.71-4.87,4.11-7.43,5.52-2.54-1.28-5.02-2.51-7.41-4.14,1.9-8.19,4.11-17.92,6.36-25.62,3.18-10.86,4.4-18.11,10.31-28.45,2.85-4.98,8.44-11.79,15.3-15.25,4.28-2.16,18.41-2.1,22.46-2.68,9.12-1.31,35.54-6.59,40.85-2.73Z"/>
          </g>
          <g>
            <path class="cls-30" d="M394.51,256.72c-.03,3.39.35,6.09.71,7.93.41,2.11.71,2.66,1.08,3.1.57.67,1.43,1.23,6.29,2.43,2.65.66,2.99.64,3.05.9.29,1.28-6.93,5.65-14.39,4.6-4.56-.64-8.72-3.25-8.46-4.62.26-1.38,4.82-.64,6.17-3.13.95-1.73-.11-4.19-1.37-6.23,1.21-2.27,5.7-2.72,6.91-4.99Z"/>
            <g>
              <path class="cls-26" d="M383.11,255.36c.34-1.03,1.22-1.1,1.54-2.35.37-1.45-.62-2.15-.27-3.01.62-1.53,4.6-1.43,7.05-1.02,2.72.45,5.73.95,7.28,3.51,1.5,2.48,1.21,6.2-.4,7.21-.88.55-1.61-.04-3.02.37-1.81.52-2.95,2.15-3.64,3.52-.11-.56-.28-1.25-.56-2.01-.55-1.46-.77-2.21-1.27-2.39-.99-.36-1.72,1.56-3.18,1.56-1.93,0-4.19-3.34-3.51-5.39Z"/>
              <path class="cls-33" d="M394.18,262.13s-2.07,3.05-5.87,2.61c-3.4-.39-3.52-8.07-1.26-9.59.75-.51,2.22-.66,3.39-.27.69.23.91.53,2.05.89,1.05.33,1.35.22,1.66.51.38.36.64,1.2-.14,3.4.68-.63,1.48-.84,2.02-.55.09.05.31.22.43.47.43.9-.42,1.97-2.27,2.53Z"/>
            </g>
          </g>
          <g>
            <path class="cls-46" d="M419.61,409.97c-.08,0-.17,0-.25-.02l-81.03-10.12c-1.11-.14-1.89-1.15-1.76-2.26.14-1.11,1.16-1.89,2.26-1.76l81.03,10.12c1.11.14,1.89,1.15,1.76,2.26-.13,1.02-1,1.77-2,1.77Z"/>
            <path class="cls-46" d="M327.4,429.87c-.24,0-.48-.04-.71-.13-1.04-.39-1.57-1.56-1.18-2.6l20.6-54.68c2.54-6.73,9.31-10.93,16.46-10.22l21.12,2.1c1.11.11,1.92,1.1,1.81,2.21-.11,1.11-1.1,1.92-2.21,1.81l-21.12-2.1c-5.34-.53-10.38,2.6-12.27,7.62l-20.6,54.68c-.3.81-1.07,1.31-1.89,1.31Z"/>
            <path class="cls-46" d="M354.84,430.68c-.18,0-.37-.03-.56-.08-1.07-.31-1.69-1.43-1.38-2.5l7.81-27.12c.31-1.07,1.43-1.69,2.5-1.38,1.07.31,1.69,1.43,1.38,2.5l-7.81,27.12c-.26.89-1.06,1.46-1.94,1.46Z"/>
          </g>
          <g>
            <path class="cls-17" d="M340.78,422.26c0-7.75,6.3-14.05,14.05-14.05s14.05,6.3,14.05,14.05-6.3,14.05-14.05,14.05-14.05-6.3-14.05-14.05ZM348.97,422.26c0,3.23,2.63,5.87,5.87,5.87s5.87-2.63,5.87-5.87-2.63-5.87-5.87-5.87-5.87,2.63-5.87,5.87Z"/>
            <circle class="cls-34" cx="356.09" cy="421.76" r="8.36"/>
          </g>
          <g>
            <path class="cls-32" d="M335.2,302.03c10.33.22,21.15.59,31.53.92.87.03,1.22.28,1.5,1.1,4.44,13.24,8.33,27.04,12.45,40.33.44,1.41-.22,2.17-1.63,2.11-9.94-.43-20.29-.58-30.29-.75-.84-.01-1.21-.26-1.48-1.1-4.39-13.43-9.14-27.12-13.68-40.45-.48-1.41.11-2.19,1.59-2.16Z"/>
            <path class="cls-3" d="M357.84,336.3c-1.41-6.37,1.65-12.09-1.83-17.56-3.58-5.63-10.35-4.98-15.02-9.62-1.49-1.48-3.27-4.69-3.78-7.06-.61.01-1.54-.17-2.05-.07-1.13.22-2.06.76-1.57,2.17,4.62,13.38,9.29,27.02,13.71,40.48.28.84.64,1.05,1.47,1.08,5.03.16,10.29.13,15.35.21-2.81-2.19-5.61-6.6-6.29-9.64Z"/>
          </g>
          <g>
            <path class="cls-8" d="M415.97,352.3c5.89-3.15,4.77-12.27,9.86-29.96,2.05-7.14,3.19-12.52,3.37-19.1.09-3.44-.16-6.75-.66-10.46-.24-1.75-2.47-17.05-10.61-20.61-2.27-.99-4.57-.98-4.57-.98-4.45.02-7.67,2.87-9.28,4.28-1.6,1.41-2.58,2.66-4.36,5.3-1.6,2.39-3.6,5.14-4.54,9.71-1.53,7.45.78,16.87,1.75,25.25.44,3.82,4.41,13.54,1.95,17.37-2.17,3.38-19.55-6.4-22.61-8.21-.82.04-2.3.25-3.5,1.32,0,0-.86.77-1.32,1.92-1.37,3.43,8.88,22.53,27.32,25.24,3.6.53,12.29,1.54,17.2-1.08Z"/>
            <path class="cls-10" d="M374.72,326.72c-3.78-3.9-8.89-9.55-14.35-10.35-5.46-.8,1.66,10.29,3.19,11.19,1.53.9,3.87,1.66,5.11,1.68,1.24.01.61-.06,1.5-.05.57.38,1.28.74,1.91,1.11,1.78-.64,2.75-1.52,2.63-3.58Z"/>
          </g>
          <g>
            <path class="cls-11" d="M386.74,428.17c-8.28-9.48-12.84-22.06-12.84-35.43s4.56-25.94,12.84-35.43c8.38-9.6,19.56-14.89,31.48-14.89s23.1,5.29,31.48,14.89c8.28,9.48,12.84,22.06,12.84,35.43s-4.56,25.94-12.84,35.43c-8.38,9.6-19.56,14.89-31.48,14.89s-23.1-5.29-31.48-14.89ZM379.99,392.74c0,24.39,17.15,44.23,38.23,44.23s38.23-19.84,38.23-44.23-17.15-44.23-38.23-44.23-38.23,19.84-38.23,44.23Z"/>
            <path class="cls-50" d="M439.07,421.02s-.07,0-.11,0l-13.78-1.14c-2.11-.17-3.88-1.1-5.13-2.69-1.5-1.9-2.08-4.58-1.62-7.54l6.82-44.28c.11-.73.8-1.23,1.53-1.12.73.11,1.23.8,1.12,1.53l-6.82,44.28c-.34,2.22.04,4.16,1.08,5.48.78.99,1.9,1.57,3.25,1.68l13.78,1.14c.74.06,1.29.71,1.22,1.45-.06.7-.64,1.23-1.33,1.23Z"/>
            <ellipse class="cls-9" cx="420.66" cy="392.2" rx="33.71" ry="39.56"/>
            <ellipse class="cls-45" cx="422.96" cy="391.48" rx="5.09" ry="6.75"/>
            <path class="cls-7" d="M390.94,424.38c-7.53-8.61-11.67-20.03-11.67-32.14s4.14-23.53,11.67-32.14c7.66-8.77,17.89-13.6,28.81-13.6s21.15,4.83,28.81,13.6c7.53,8.61,11.67,20.03,11.67,32.14s-4.14,23.53-11.67,32.14c-7.66,8.77-17.89,13.6-28.81,13.6s-21.15-4.83-28.81-13.6ZM386.91,391.67c0,21.37,14.96,38.76,33.34,38.76s33.34-17.39,33.34-38.76-14.96-38.76-33.34-38.76-33.34,17.39-33.34,38.76Z"/>
          </g>
          <path class="cls-14" d="M341.39,327c1.1-.11,1.88-2.55,1.97-4.35.3-5.99-6.79-11.05-7.97-10.24-.43.3.02,1.75.94,4.65,1.09,3.45,3.19,10.12,5.06,9.93Z"/>
        </g>
        <g>
          <g>
            <g>
              <path class="cls-47" d="M224.49,186.38c0-23.59,21.32-42.2,46.44-41.6,23.91.57,42.45,18.5,42.45,40.07s-18.55,40.13-42.45,41.53c-25.12,1.47-46.44-16.41-46.44-40Z"/>
              <path class="cls-16" d="M227.27,184.52c0-23.56,20.66-42.16,45.02-41.55,23.19.57,41.2,18.5,41.2,40.06s-18,40.11-41.2,41.49c-24.36,1.44-45.02-16.43-45.02-40Z"/>
              <g class="cls-53">
                <path class="cls-51" d="M234.38,184.4c0-19.74,17.29-35.36,37.72-34.91,19.52.43,34.71,15.5,34.71,33.66s-15.19,33.75-34.71,34.86c-20.44,1.16-37.72-13.87-37.72-33.61Z"/>
              </g>
              <path class="cls-2" d="M270.71,152.44c19.54.41,34.75,15.46,34.75,33.64,0,4.32-.86,8.49-2.43,12.35,2.42-4.64,3.78-9.84,3.78-15.28,0-18.17-15.19-33.23-34.71-33.66-15.73-.35-29.6,8.84-35.15,22.14,6.29-11.67,19.23-19.48,33.76-19.18Z"/>
            </g>
            <g>
              <path class="cls-51" d="M275.95,184.72c0,3.32-2.76,6-6.17,5.98-3.42-.02-6.2-2.74-6.2-6.08s2.78-6.01,6.2-5.98c3.41.04,6.17,2.75,6.17,6.08Z"/>
              <path class="cls-51" d="M269.78,171.43c-10.97-.15-20.69,5.05-26.25,13.04,5.56,8.07,15.28,13.42,26.25,13.45,10.88.03,20.36-5.18,25.71-13.04-5.35-7.94-14.83-13.31-25.71-13.45ZM269.78,195.24c-6-.02-10.89-4.79-10.89-10.65s4.89-10.55,10.89-10.48c5.97.07,10.8,4.84,10.8,10.65s-4.82,10.5-10.8,10.48Z"/>
              <path class="cls-51" d="M275.95,184.72c0,3.32-2.76,6-6.17,5.98-3.42-.02-6.2-2.74-6.2-6.08s2.78-6.01,6.2-5.98c3.41.04,6.17,2.75,6.17,6.08Z"/>
            </g>
          </g>
          <g>
            <g>
              <path class="cls-47" d="M345.59,186.58c0-22.47,19.35-40.22,42.18-39.66,21.74.53,38.62,17.62,38.62,38.19s-16.88,38.28-38.62,39.6c-22.82,1.38-42.18-15.66-42.18-38.13Z"/>
              <path class="cls-12" d="M348.11,184.8c0-22.45,18.76-40.18,40.89-39.62,21.09.53,37.48,17.62,37.48,38.19s-16.39,38.26-37.48,39.56c-22.13,1.36-40.89-15.68-40.89-38.13Z"/>
              <g class="cls-53">
                <path class="cls-51" d="M354.57,184.69c0-18.81,15.7-33.71,34.27-33.29,17.75.4,31.57,14.76,31.57,32.09s-13.82,32.19-31.57,33.24c-18.57,1.09-34.27-13.23-34.27-32.04Z"/>
              </g>
              <path class="cls-2" d="M387.57,154.22c17.77.38,31.61,14.73,31.61,32.07,0,4.12-.79,8.1-2.21,11.78,2.2-4.43,3.44-9.39,3.44-14.58,0-17.33-13.82-31.69-31.57-32.09-14.3-.32-26.89,8.44-31.93,21.12,5.71-11.12,17.46-18.57,30.66-18.29Z"/>
            </g>
            <g>
              <g>
                <path class="cls-51" d="M409.83,189.74c0,.73-.57,1.31-1.28,1.31l-5.97-.03c-.71,0-1.28-.6-1.28-1.33h0c0-.73.58-1.32,1.28-1.31l5.97.04c.7,0,1.28.6,1.28,1.33h0Z"/>
                <path class="cls-51" d="M406.44,181.08c.31.62,0,1.42-.71,1.78l-2.59,1.34c-.7.36-1.52.15-1.83-.47v-.03c-.32-.62-.05-1.52.65-1.88l2.6-1.34c.7-.36,1.56-.05,1.87.57v.03Z"/>
                <path class="cls-51" d="M405.58,198.72c.31-.62,0-1.42-.71-1.79l-2.59-1.37c-.7-.37-1.52-.17-1.83.45v.03c-.32.62-.05,1.52.65,1.89l2.6,1.37c.7.37,1.56.07,1.87-.55v-.03Z"/>
              </g>
              <path class="cls-51" d="M386.67,162.27c-6.87-.12-12.5,5.34-12.87,12.18l-.02.05v.19s.02.14.02.14c0,.14-.01.29-.01.43,0,.78.07,1.54.2,2.28l-.02.21,1.37,19.7h0c0,.57.1,1.12.17,1.66.09.64.27,1.25.46,1.84,1.2,3.74,4.26,6.39,7.83,6.39,1.83,0,3.59-.71,4.94-1.95,1.42-1.31,2.56-2.97,2.99-4.89.18-.79.26-1.6.27-2.4,0-.61.07-1.2.18-1.79.5-2.69,1.92-5.22,2.93-7.68,1.73-4.18,4.32-8.34,4.32-13.03,0-7.2-5.69-13.18-12.75-13.31ZM391.99,178.46c-.63.14-1.26-.28-1.4-.93-.05-.21-1.2-5.17-5.86-5.23-2.42-.03-3.52,1.67-3.96,2.69-.94,2.17-.62,4.95.75,6.47.23.25.48.53.75.82,2.55,2.78,6.41,6.98,6.04,11.38-.18,2.13-1.32,4.01-3.39,5.59-.21.16-.46.24-.71.24-.36,0-.72-.17-.95-.49-.39-.54-.29-1.29.24-1.69,1.54-1.17,2.34-2.44,2.46-3.87.28-3.34-3.14-7.05-5.41-9.52-.28-.3-.53-.58-.77-.84-2-2.23-2.49-6.05-1.18-9.09,1.15-2.65,3.38-4.14,6.13-4.1,5.27.08,7.64,4.71,8.16,7.15.14.65-.26,1.29-.9,1.42Z"/>
            </g>
          </g>
          <g>
            <g>
              <path class="cls-47" d="M88.71,184.66c0-24.84,23.64-44.41,51.46-43.74,26.45.64,46.95,19.52,46.95,42.19s-20.5,42.19-46.95,43.67c-27.82,1.55-51.46-17.27-51.46-42.12Z"/>
              <path class="cls-15" d="M91.79,182.71c0-24.82,22.91-44.36,49.89-43.69,25.66.64,45.57,19.52,45.57,42.19s-19.9,42.17-45.57,43.62c-26.98,1.52-49.89-17.3-49.89-42.12Z"/>
              <g class="cls-53">
                <path class="cls-51" d="M99.68,182.58c0-20.79,19.16-37.21,41.79-36.7,21.6.48,38.4,16.34,38.4,35.44s-16.8,35.49-38.4,36.65c-22.63,1.22-41.79-14.6-41.79-35.39Z"/>
              </g>
              <path class="cls-2" d="M139.93,148.99c21.62.46,38.44,16.31,38.44,35.42,0,4.54-.95,8.92-2.68,12.98,2.67-4.88,4.18-10.34,4.18-16.07,0-19.1-16.8-34.96-38.4-35.44-17.42-.39-32.78,9.26-38.94,23.25,6.97-12.28,21.31-20.48,37.39-20.14Z"/>
            </g>
            <g>
              <g>
                <path class="cls-51" d="M144.8,170.22c-1.56-2.77-3.56-5.29-5.91-7.5-1.19-1.12-1.25-2.9-.15-4.07l.13-.13c1.24-1.31,3.42-1.33,4.76-.06,2.6,2.46,4.85,5.25,6.65,8.3l-5.47,3.44Z"/>
                <path class="cls-51" d="M147.45,206.54c-1.12,1.41-3.28,1.65-4.72.51l-.14-.11c-1.27-1.02-1.5-2.78-.5-4.03,4.58-5.71,7.05-12.91,6.44-20.56,0-.08-.02-.17-.03-.25l6.1-3.87c.23,1.22.4,2.46.5,3.72.73,9.15-2.2,17.75-7.65,24.59Z"/>
                <path class="cls-51" d="M135.7,175.95c-1.02-2.08-2.39-3.98-4.03-5.63-1.15-1.15-1.23-2.9-.12-4.06l.02-.02c1.26-1.32,3.5-1.36,4.81-.05,1.89,1.88,3.49,4.01,4.75,6.33l-5.43,3.42Z"/>
                <path class="cls-51" d="M144.21,184.83c-.05,5.52-1.93,10.67-5.15,14.95-1.09,1.45-3.32,1.69-4.77.53l-.03-.02c-1.27-1.02-1.48-2.75-.52-4.02,1.55-2.07,2.7-4.41,3.35-6.92l7.11-4.52Z"/>
                <path class="cls-51" d="M131.84,178.38l-5.76,3.63c-.37-1.43-1.05-2.73-1.98-3.86-1.02-1.24-1.02-2.94.07-4.09h.01c1.34-1.43,3.76-1.35,5.04.14,1.07,1.26,1.96,2.67,2.62,4.19Z"/>
              </g>
              <path class="cls-51" d="M164.61,166.68l-1.87-2.55c-.46-.63-1.37-.8-2.04-.38l-47.91,30.22c-.69.44-.86,1.31-.39,1.94l1.94,2.58c.48.63,1.42.79,2.11.36l47.78-30.27c.66-.42.83-1.27.37-1.9Z"/>
            </g>
          </g>
        </g>
        <g>
          <g>
            <path class="cls-6" d="M165.29,477.82c7.34-.94,16.67-3.44,25.44-9.79,9.48-6.87,21.61-20.64,17.88-28.77-1.39-3.04-5.1-5.51-8.23-5.11-4.63.6-4.86,7.08-12.59,14.48-1.43,1.37-8.82,8.45-12.76,6.37-1.96-1.03-2.67-4.12-2.47-6.5.58-6.97,8.98-8.43,16.74-16.32,7.87-7.99,14.1-21.57,9.75-30.34-2.5-5.04-8.66-8.82-12.53-7.49-1.65.57-2.65,1.99-7.21,13.23-3.74,9.22-4.55,11.9-7.2,12.88-2.73,1.01-7.09.12-8.86-2.54-4.61-6.91,13.33-18.29,14.04-38.27.32-8.95-2.72-22.06-10.94-24.5-5.55-1.65-13.19,1.64-15.76,6.79-2.32,4.64.92,7.89-.52,18.12-.44,3.11-1.34,9.5-3.88,9.95-2.97.53-6.71-7.38-7.58-9.31-6.53-14.53-.22-22.46-6.06-29.39-4.55-5.4-13.98-7.2-21.23-4.02-6.34,2.79-11.2,9.48-11.23,16.17-.03,6.81,6.01,13.3,18.09,26.28,5.73,6.15,10.25,10.28,10.31,16.67.03,3.11-.99,7.54-3.2,8.05-4.87,1.12-8.24-18.55-20.03-21.05-6.04-1.28-13.29,2.15-16.29,7.68-3.67,6.77-.55,15.98,4.69,20.64,6.84,6.09,13.31.9,25.94,7.19,5.6,2.79,14.49,8.87,13.49,14.29-.43,2.36-2.77,4.77-5.45,5.2-5.99.97-8.45-8.8-18.35-12.68-7.13-2.79-16.76-1.99-18.86,2.05-2.97,5.71,9.13,17.77,15.5,23.05,7.71,6.38,25.74,18.32,59.33,16.98Z"/>
            <g class="cls-54">
              <path class="cls-51" d="M162.2,474.82c.18-16.62-12.39-49.81-21.13-65.37-8.52-15.15-17.13-39.38-17.22-39.62l-1.18.42c.09.24,8.74,24.57,17.31,39.82,8.67,15.43,21.15,48.33,20.97,64.74h1.25Z"/>
            </g>
          </g>
          <path class="cls-13" d="M182.76,479.14c5.18-7.97,12.65-22.26,13.22-40.93.23-7.69.69-22.72-9.08-35.19-4.87-6.22-15.01-15.27-21.41-12.21-4.12,1.97-6.41,8.81-4.98,13.87,1.44,5.09,5.82,5.36,10.98,13.88,1.91,3.15,4.1,6.85,2.66,9.07-1.2,1.85-4.72,2.35-7.42,1.4-5.58-1.96-4.2-8.85-10.35-13.46-4.37-3.27-11.46-4.57-14.35-1.58-2.51,2.6-1.77,8.35.73,12.09,4.01,5.98,10.59,3.86,15.26,10.38,2.07,2.9,3.66,7.34,2.06,9.21-1.83,2.13-7.57.64-11.3-1.44-4.93-2.74-5.26-5.89-8.43-6.13-3.54-.27-7.78,3.29-8.29,7.03-.71,5.24,5.92,10.53,11.08,12.72,6.6,2.8,11.31.75,14.67,4.85,1.23,1.51,2.41,4,1.54,5.59-1.25,2.27-6.18,1.78-9.45,1.45-7.96-.8-10.28-3.56-13.04-2.03-2.8,1.55-4.05,6.38-2.65,9.67.78,1.82,2.99,4.6,13.34,5.91,7.24.92,19.35,1.22,35.22-4.15Z"/>
        </g>
      </g>
    </g>
  </g>
</svg>