<?xml version="1.0" encoding="UTF-8"?>
<svg id="Ebene_1" data-name="Ebene 1" xmlns="http://www.w3.org/2000/svg" viewBox="0 0 4.43 7.54">
  <defs>
    <style>
      .cls-1 {
        fill: #4e2f12;
        stroke-width: 0px;
      }
    </style>
  </defs>
  <g id="LuWVXP.tif">
    <path class="cls-1" d="M.76,0c.14.05.24.16.35.27,1.05,1.06,2.11,2.11,3.16,3.17.16.16.2.36.1.54-.02.04-.06.08-.09.11-1.1,1.1-2.19,2.2-3.29,3.29-.21.21-.44.21-.65,0-.03-.03-.05-.06-.08-.08-.12-.11-.24-.23-.26-.41h0c.01-.2.14-.31.26-.43.88-.87,1.75-1.75,2.62-2.63.02-.02.04-.04.06-.07-.03-.02-.05-.04-.07-.06C1.98,2.8,1.08,1.9.18,1c-.03-.03-.06-.06-.08-.09C0,.78-.03.56.08.43c.14-.17.28-.35.51-.43h.18Z"/>
  </g>
</svg>