<?xml version="1.0" encoding="UTF-8"?>
<svg id="Ebene_1" data-name="Ebene 1" xmlns="http://www.w3.org/2000/svg" viewBox="0 0 40 40">
  <defs>
    <style>
      .cls-1 {
        fill: #ed6e20;
        stroke-width: 0px;
      }
    </style>
  </defs>
  <g id="ojUzyi.tif">
    <path class="cls-1" d="M21.02,34.77h-2.01c-.34-.04-.68-.08-1.02-.13-2.65-.39-5.04-1.39-7.13-3.08-2.86-2.31-4.65-5.27-5.31-8.89-.1-.52-.15-1.06-.23-1.59,0-.65,0-1.3,0-1.96.02-.08.04-.17.06-.25.13-.78.2-1.58.39-2.34.93-3.64,2.96-6.54,6.05-8.65,3.09-2.12,6.52-2.92,10.23-2.42,2.67.36,5.08,1.38,7.15,3.1,4.24,3.54,6.1,8.08,5.44,13.57-.34,2.81-1.51,5.3-3.36,7.45-2.3,2.67-5.18,4.34-8.66,4.96-.53.09-1.06.15-1.59.23ZM24.35,32.24c4.95-1.63,9.45-7.01,8.56-13.85-.84-6.43-6.38-11.42-13.01-11.34-6.91.08-12.52,5.6-12.84,12.44-.3,6.28,3.97,11.24,8.65,12.74v-2.25c-.1,0-.19,0-.27.02-.57.1-1.12.05-1.67-.12-.84-.27-1.46-.82-1.93-1.55-.4-.62-.81-1.21-1.64-1.3-.05-.57-.1-1.12-.15-1.68.74-.08,1.37.16,1.95.57.59.41.98.99,1.37,1.57.53.78,1.38,1.03,2.25.68.06-.02.13-.08.15-.14.13-.47.24-.93.35-1.39-.5-.19-1.05-.37-1.56-.62-1.78-.84-3.08-2.14-3.71-4.02-.8-2.39-.48-4.66.9-6.77.05-.08.1-.19.09-.28-.02-.29-.09-.57-.11-.85-.07-.83-.02-1.65.26-2.43.27-.74.83-1.12,1.56-1.03.31.04.64.07.92.2.75.33,1.47.72,2.22,1.07.15.07.35.12.5.08,1.87-.45,3.74-.45,5.6-.01.27.06.47.03.69-.11.79-.49,1.59-.94,2.52-1.15,1.2-.27,1.91.17,2.2,1.38.23.94.19,1.88.04,2.82-.02.1.01.23.07.31,1.09,1.59,1.5,3.36,1.27,5.26-.32,2.61-1.74,4.44-4.09,5.56-.51.24-1.05.42-1.6.63.39.74.47,1.53.46,2.34-.01,1.07,0,2.15,0,3.24ZM20.94,25.4c.14-.03.24-.05.34-.07,1.04-.16,2.08-.3,3.07-.69,1.35-.54,2.45-1.39,3.04-2.74.89-2.01.69-3.96-.58-5.76-.33-.48-.46-.92-.31-1.49.19-.73.18-1.49,0-2.26-.08.01-.15.01-.21.03-.77.18-1.44.58-2.08,1.01-.53.35-1.04.4-1.66.26-.72-.17-1.47-.27-2.21-.32-1.05-.07-2.08.1-3.1.36-.44.11-.83.05-1.2-.19-.34-.22-.68-.43-1.04-.62-.45-.24-.9-.49-1.45-.53-.17.79-.18,1.56.02,2.32.13.49.08.91-.25,1.32-.69.87-1.05,1.88-1.14,2.98-.17,2.05.54,3.7,2.2,4.91.98.71,2.11,1.05,3.3,1.24.47.07.93.15,1.45.23-.38.55-.7,1.07-1.07,1.55-.44.56-.61,1.18-.62,1.87,0,1.25,0,2.49,0,3.74,0,.18.06.24.24.27,1.57.29,3.14.28,4.71,0,.18-.03.23-.09.23-.27,0-1.25,0-2.49,0-3.74,0-.69-.18-1.31-.62-1.87-.38-.48-.7-1-1.06-1.54Z"/>
  </g>
</svg>