<?xml version="1.0" encoding="UTF-8"?>
<svg id="Ebene_1" data-name="Ebene 1" xmlns="http://www.w3.org/2000/svg" viewBox="0 0 162.79 48.24">
  <defs>
    <style>
      .cls-1 {
        letter-spacing: .02em;
      }

      .cls-2, .cls-3, .cls-4, .cls-5, .cls-6, .cls-7, .cls-8 {
        stroke-width: 0px;
      }

      .cls-9 {
        font-family: MyriadPro-Regular, 'Myriad Pro';
        font-size: 12.35px;
      }

      .cls-9, .cls-6 {
        fill: #fff;
      }

      .cls-3 {
        fill: #517cbe;
      }

      .cls-4 {
        fill: #a6a6a6;
      }

      .cls-5 {
        fill: #32a853;
      }

      .cls-7 {
        fill: #e84436;
      }

      .cls-8 {
        fill: #fbbc0c;
      }
    </style>
  </defs>
  <rect class="cls-2" width="162.79" height="48.23" rx="6.03" ry="6.03"/>
  <path class="cls-4" d="M156.76.96c2.79,0,5.06,2.27,5.06,5.06v36.18c0,2.79-2.27,5.06-5.06,5.06H6.03c-2.79,0-5.06-2.27-5.06-5.06V6.03C.96,3.24,3.24.96,6.03.96h150.73M156.76,0H6.03C2.71,0,0,2.71,0,6.03v36.18c0,3.32,2.71,6.03,6.03,6.03h150.73c3.32,0,6.03-2.71,6.03-6.03V6.03C162.79,2.71,160.08,0,156.76,0h0Z"/>
  <path class="cls-6" d="M82.16,26.23c-2.84,0-5.15,2.16-5.15,5.13s2.31,5.13,5.15,5.13,5.15-2.18,5.15-5.13-2.31-5.13-5.15-5.13ZM82.16,34.47c-1.55,0-2.89-1.28-2.89-3.11s1.34-3.11,2.89-3.11,2.89,1.26,2.89,3.11-1.34,3.11-2.89,3.11ZM70.93,26.23c-2.84,0-5.15,2.16-5.15,5.13s2.31,5.13,5.15,5.13,5.15-2.18,5.15-5.13-2.31-5.13-5.15-5.13ZM70.93,34.47c-1.55,0-2.89-1.28-2.89-3.11s1.34-3.11,2.89-3.11,2.89,1.26,2.89,3.11-1.34,3.11-2.89,3.11ZM57.57,27.8v2.18h5.21c-.16,1.22-.56,2.12-1.19,2.74-.76.76-1.94,1.59-4.02,1.59-3.21,0-5.71-2.58-5.71-5.79s2.51-5.79,5.71-5.79c1.73,0,2.99.68,3.92,1.55l1.53-1.53c-1.3-1.24-3.03-2.2-5.46-2.2-4.39,0-8.08,3.57-8.08,7.97s3.69,7.97,8.08,7.97c2.37,0,4.16-.78,5.56-2.23,1.44-1.44,1.88-3.46,1.88-5.09,0-.51-.04-.97-.12-1.36h-7.32ZM112.21,29.49c-.43-1.15-1.73-3.26-4.39-3.26s-4.84,2.08-4.84,5.13c0,2.88,2.18,5.13,5.09,5.13,2.35,0,3.71-1.44,4.27-2.27l-1.75-1.17c-.58.85-1.38,1.42-2.53,1.42s-1.96-.52-2.49-1.55l6.86-2.84-.23-.58ZM105.21,31.2c-.06-1.98,1.53-2.99,2.68-2.99.89,0,1.65.45,1.9,1.09l-4.58,1.9ZM99.64,36.18h2.25v-15.08h-2.25v15.08ZM95.95,27.38h-.08c-.51-.6-1.48-1.15-2.7-1.15-2.56,0-4.92,2.25-4.92,5.15s2.35,5.11,4.92,5.11c1.22,0,2.2-.54,2.7-1.17h.08v.74c0,1.96-1.05,3.01-2.74,3.01-1.38,0-2.23-.99-2.58-1.83l-1.96.82c.56,1.36,2.06,3.03,4.55,3.03,2.64,0,4.88-1.55,4.88-5.34v-9.21h-2.14v.84ZM93.36,34.47c-1.55,0-2.86-1.3-2.86-3.09s1.3-3.13,2.86-3.13,2.74,1.32,2.74,3.13-1.2,3.09-2.74,3.09ZM122.76,21.1h-5.39v15.08h2.25v-5.71h3.14c2.49,0,4.95-1.81,4.95-4.68s-2.45-4.68-4.95-4.68ZM122.82,28.37h-3.2v-5.17h3.2c1.68,0,2.64,1.39,2.64,2.58s-.96,2.58-2.64,2.58ZM136.73,26.2c-1.63,0-3.32.72-4.01,2.31l2,.83c.43-.83,1.22-1.11,2.06-1.11,1.16,0,2.35.7,2.37,1.94v.16c-.41-.23-1.28-.58-2.35-.58-2.15,0-4.34,1.18-4.34,3.39,0,2.02,1.76,3.32,3.74,3.32,1.51,0,2.35-.68,2.87-1.47h.08v1.16h2.17v-5.78c0-2.68-2-4.17-4.58-4.17ZM136.46,34.46c-.74,0-1.76-.37-1.76-1.28,0-1.16,1.28-1.61,2.39-1.61.99,0,1.45.21,2.06.5-.17,1.4-1.38,2.39-2.68,2.39ZM149.22,26.53l-2.58,6.54h-.08l-2.68-6.54h-2.42l4.01,9.13-2.29,5.08h2.35l6.19-14.22h-2.5ZM128.95,36.18h2.25v-15.08h-2.25v15.08Z"/>
  <g>
    <path class="cls-7" d="M24.98,23.42l-12.84,13.63s0,0,0,0c.39,1.48,1.74,2.57,3.35,2.57.64,0,1.24-.17,1.76-.48l.04-.02,14.45-8.34-6.76-7.36Z"/>
    <path class="cls-8" d="M37.97,21.1h-.01s-6.24-3.63-6.24-3.63l-7.03,6.26,7.05,7.05,6.21-3.58c1.09-.59,1.83-1.73,1.83-3.06s-.73-2.45-1.81-3.04Z"/>
    <path class="cls-3" d="M12.14,11.19c-.08.28-.12.58-.12.89v24.08c0,.31.04.61.12.89l13.28-13.28-13.28-12.58Z"/>
    <path class="cls-5" d="M25.08,24.12l6.64-6.64-14.43-8.37c-.52-.31-1.14-.5-1.79-.5-1.6,0-2.96,1.09-3.35,2.57,0,0,0,0,0,0l12.93,12.93Z"/>
  </g>
  <text class="cls-9" transform="translate(49.63 15.84)"><tspan x="0" y="0">G</tspan><tspan class="cls-1" x="7.98" y="0">E</tspan><tspan x="14.25" y="0">T IT ON</tspan></text>
</svg>