<?xml version="1.0" encoding="UTF-8"?>
<svg xmlns="http://www.w3.org/2000/svg" xmlns:xlink="http://www.w3.org/1999/xlink" viewBox="0 0 550 600">
  <defs>
    <style>
      .cls-1 {
        clip-path: url(#clippath);
      }

      .cls-2 {
        fill: none;
      }

      .cls-2, .cls-3, .cls-4, .cls-5, .cls-6, .cls-7, .cls-8, .cls-9, .cls-10, .cls-11, .cls-12, .cls-13, .cls-14, .cls-15, .cls-16, .cls-17, .cls-18, .cls-19, .cls-20, .cls-21, .cls-22, .cls-23, .cls-24, .cls-25, .cls-26, .cls-27, .cls-28, .cls-29, .cls-30, .cls-31, .cls-32, .cls-33, .cls-34, .cls-35, .cls-36, .cls-37, .cls-38, .cls-39, .cls-40, .cls-41, .cls-42, .cls-43, .cls-44, .cls-45, .cls-46, .cls-47, .cls-48, .cls-49 {
        stroke-width: 0px;
      }

      .cls-3 {
        fill: url(#linear-gradient);
      }

      .cls-4 {
        fill: url(#linear-gradient-32);
      }

      .cls-4, .cls-5 {
        mix-blend-mode: multiply;
        opacity: .3;
      }

      .cls-5 {
        fill: url(#linear-gradient-27);
      }

      .cls-6 {
        fill: url(#linear-gradient-38);
      }

      .cls-7 {
        fill: url(#linear-gradient-33);
      }

      .cls-8 {
        fill: url(#linear-gradient-29);
      }

      .cls-9 {
        fill: url(#linear-gradient-30);
      }

      .cls-10 {
        fill: url(#linear-gradient-31);
      }

      .cls-11 {
        fill: url(#linear-gradient-36);
      }

      .cls-12 {
        fill: url(#linear-gradient-39);
      }

      .cls-13 {
        fill: url(#linear-gradient-34);
      }

      .cls-14 {
        fill: url(#linear-gradient-37);
      }

      .cls-15 {
        fill: url(#linear-gradient-35);
      }

      .cls-16 {
        fill: url(#linear-gradient-28);
      }

      .cls-17 {
        fill: url(#linear-gradient-25);
      }

      .cls-18 {
        fill: url(#linear-gradient-11);
      }

      .cls-19 {
        fill: url(#linear-gradient-12);
      }

      .cls-20 {
        fill: url(#linear-gradient-13);
      }

      .cls-21 {
        fill: url(#linear-gradient-10);
      }

      .cls-22 {
        fill: url(#linear-gradient-17);
      }

      .cls-23 {
        fill: url(#linear-gradient-16);
      }

      .cls-24 {
        fill: url(#linear-gradient-19);
      }

      .cls-25 {
        fill: url(#linear-gradient-15);
      }

      .cls-26 {
        fill: url(#linear-gradient-23);
      }

      .cls-27 {
        fill: url(#linear-gradient-21);
      }

      .cls-28 {
        fill: url(#linear-gradient-18);
      }

      .cls-29 {
        fill: url(#linear-gradient-14);
      }

      .cls-30 {
        fill: url(#linear-gradient-22);
      }

      .cls-31 {
        fill: url(#linear-gradient-20);
      }

      .cls-32 {
        fill: url(#linear-gradient-24);
      }

      .cls-33 {
        fill: url(#linear-gradient-26);
      }

      .cls-34 {
        fill: url(#linear-gradient-40);
      }

      .cls-50 {
        clip-path: url(#clippath-1);
      }

      .cls-35 {
        fill: url(#linear-gradient-4);
      }

      .cls-36 {
        fill: url(#linear-gradient-2);
      }

      .cls-37 {
        fill: url(#linear-gradient-3);
      }

      .cls-38 {
        fill: url(#linear-gradient-8);
      }

      .cls-39 {
        fill: url(#linear-gradient-9);
      }

      .cls-40 {
        fill: url(#linear-gradient-7);
      }

      .cls-41 {
        fill: url(#linear-gradient-5);
      }

      .cls-42 {
        fill: url(#linear-gradient-6);
      }

      .cls-51 {
        isolation: isolate;
      }

      .cls-43 {
        fill: #c68dbe;
      }

      .cls-44 {
        fill: #d8dee8;
      }

      .cls-45 {
        fill: #9f3061;
      }

      .cls-46 {
        fill: #98a6b7;
      }

      .cls-47 {
        fill: #fdfeff;
      }

      .cls-48 {
        fill: #fff;
      }

      .cls-49 {
        fill: #f5f7fa;
      }

      .cls-52 {
        mix-blend-mode: soft-light;
        opacity: .48;
      }
    </style>
    <linearGradient id="linear-gradient" x1="415.51" y1="448.92" x2="202.8" y2="81.11" gradientTransform="translate(-86.49 -96.96) rotate(6.36)" gradientUnits="userSpaceOnUse">
      <stop offset="0" stop-color="#9080ba"/>
      <stop offset="1" stop-color="#5961a9"/>
    </linearGradient>
    <clipPath id="clippath">
      <path class="cls-2" d="M241.04,256.03c1.17-6.83,14.59-53.78,5.31-67.44-10.57-15.57-23.33-12.72-21.43-30.15,2.98-27.24-12.77-55.93-48.89-40.7-35.65,15.03-24.64,115.5-1.24,140.56,15.96,28.31,31.13,34.12,24.18,71.22-4.87,25.98,37.68-47.8,42.07-73.49Z"/>
    </clipPath>
    <linearGradient id="linear-gradient-2" x1="96.54" y1="264.25" x2="230.25" y2="264.25" gradientUnits="userSpaceOnUse">
      <stop offset="0" stop-color="#cc90bf"/>
      <stop offset="1" stop-color="#7c6fb1"/>
    </linearGradient>
    <clipPath id="clippath-1">
      <path class="cls-2" d="M232.74,353.99c-18.6,9.62-39.56,20.59-52.35-4.92-10.65-21.24-16.72-35.92-43.45-41-26.72-5.07-47.17-25.4-38.33-51.3,9.31-27.26-14.22-63.51,8.41-83.22,39.42-34.35,63.52,33.71,70.6,71.53,7.08,37.82,30.74,20.93,54.74,19.5,32.77-1.96,15.4,81.63.38,89.4Z"/>
    </clipPath>
    <linearGradient id="linear-gradient-3" x1="306.8" y1="344.76" x2="307.67" y2="377.06" gradientUnits="userSpaceOnUse">
      <stop offset="0" stop-color="#444c8d"/>
      <stop offset="1" stop-color="#26274f"/>
    </linearGradient>
    <linearGradient id="linear-gradient-4" x1="313.89" y1="304.37" x2="219.28" y2="-27.79" xlink:href="#linear-gradient-3"/>
    <linearGradient id="linear-gradient-5" x1="219.71" y1="89.86" x2="391.14" y2="273.91" gradientUnits="userSpaceOnUse">
      <stop offset="0" stop-color="#f28e86"/>
      <stop offset="1" stop-color="#e874aa"/>
    </linearGradient>
    <linearGradient id="linear-gradient-6" x1="164.1" y1="331.75" x2="426.55" y2="331.75" xlink:href="#linear-gradient-3"/>
    <linearGradient id="linear-gradient-7" x1="245.73" y1="191.28" x2="321.08" y2="354.62" gradientUnits="userSpaceOnUse">
      <stop offset="0" stop-color="#fcc345"/>
      <stop offset="1" stop-color="#ee7058"/>
    </linearGradient>
    <linearGradient id="linear-gradient-8" x1="340.69" y1="154.85" x2="410.26" y2="305.66" xlink:href="#linear-gradient-7"/>
    <linearGradient id="linear-gradient-9" x1="258.14" y1="186.07" x2="330.11" y2="342.06" xlink:href="#linear-gradient-7"/>
    <linearGradient id="linear-gradient-10" x1="247.12" y1="442.98" x2="158.99" y2="367.8" xlink:href="#linear-gradient-3"/>
    <linearGradient id="linear-gradient-11" x1="-1867.2" y1="1588.33" x2="-1552.85" y2="1600.02" gradientTransform="translate(-1414.03 -1400.68) rotate(-90)" xlink:href="#linear-gradient-3"/>
    <linearGradient id="linear-gradient-12" x1="140.83" y1="326" x2="185.94" y2="423.8" xlink:href="#linear-gradient-7"/>
    <linearGradient id="linear-gradient-13" x1="162.22" y1="381.67" x2="202.46" y2="468.89" xlink:href="#linear-gradient-7"/>
    <linearGradient id="linear-gradient-14" x1="160.76" y1="276.3" x2="202.71" y2="367.23" xlink:href="#linear-gradient-5"/>
    <linearGradient id="linear-gradient-15" x1="166.76" y1="423.95" x2="195.79" y2="486.87" xlink:href="#linear-gradient-7"/>
    <linearGradient id="linear-gradient-16" x1="195.47" y1="328.5" x2="234.12" y2="412.27" xlink:href="#linear-gradient-7"/>
    <linearGradient id="linear-gradient-17" x1="294.71" y1="449.1" x2="239.79" y2="402.25" xlink:href="#linear-gradient-3"/>
    <linearGradient id="linear-gradient-18" x1="-1869.37" y1="1662.96" x2="-1655.42" y2="1670.92" gradientTransform="translate(-1414.03 -1400.68) rotate(-90)" xlink:href="#linear-gradient-3"/>
    <linearGradient id="linear-gradient-19" x1="230.85" y1="375.94" x2="259.52" y2="438.1" xlink:href="#linear-gradient-7"/>
    <linearGradient id="linear-gradient-20" x1="242.15" y1="416.2" x2="265.67" y2="467.19" xlink:href="#linear-gradient-7"/>
    <linearGradient id="linear-gradient-21" x1="245.21" y1="444.3" x2="261.08" y2="478.69" xlink:href="#linear-gradient-7"/>
    <linearGradient id="linear-gradient-22" x1="258.47" y1="377.42" x2="283.47" y2="431.61" xlink:href="#linear-gradient-7"/>
    <linearGradient id="linear-gradient-23" x1="241.09" y1="341.87" x2="265.98" y2="395.82" xlink:href="#linear-gradient-5"/>
    <linearGradient id="linear-gradient-24" x1="387.09" y1="415.52" x2="385.66" y2="443.82" xlink:href="#linear-gradient-5"/>
    <linearGradient id="linear-gradient-25" x1="387.09" y1="415.52" x2="385.66" y2="443.82" xlink:href="#linear-gradient-3"/>
    <linearGradient id="linear-gradient-26" x1="383.51" y1="440.89" x2="466.5" y2="440.89" xlink:href="#linear-gradient-3"/>
    <linearGradient id="linear-gradient-27" x1="383.51" y1="441.09" x2="466.5" y2="441.09" xlink:href="#linear-gradient-5"/>
    <linearGradient id="linear-gradient-28" x1="407.02" y1="473.45" x2="391.01" y2="453.52" gradientTransform="matrix(1,0,0,1,0,0)" xlink:href="#linear-gradient"/>
    <linearGradient id="linear-gradient-29" x1="397.22" y1="468.71" x2="375.1" y2="440.88" xlink:href="#linear-gradient-7"/>
    <linearGradient id="linear-gradient-30" x1="349.89" y1="439.88" x2="331.42" y2="478.31" xlink:href="#linear-gradient-3"/>
    <linearGradient id="linear-gradient-31" x1="390.89" y1="430.2" x2="368.88" y2="359.68" xlink:href="#linear-gradient-2"/>
    <linearGradient id="linear-gradient-32" x1="376.79" y1="371.93" x2="379.83" y2="421.22" xlink:href="#linear-gradient-5"/>
    <linearGradient id="linear-gradient-33" x1="350.65" y1="436.21" x2="407.43" y2="436.21" gradientTransform="matrix(1,0,0,1,0,0)" xlink:href="#linear-gradient"/>
    <linearGradient id="linear-gradient-34" x1="353.74" y1="441.88" x2="331.74" y2="371.41" xlink:href="#linear-gradient-2"/>
    <linearGradient id="linear-gradient-35" x1="389.09" y1="356.13" x2="381.42" y2="374.5" xlink:href="#linear-gradient-7"/>
    <linearGradient id="linear-gradient-36" x1="-3191.57" y1="-1038.82" x2="-3199.88" y2="-1059.92" gradientTransform="translate(-2786.92 -750.01) rotate(-142.61) scale(1 -1)" gradientUnits="userSpaceOnUse">
      <stop offset="0" stop-color="#311b44"/>
      <stop offset="1" stop-color="#6c3976"/>
    </linearGradient>
    <linearGradient id="linear-gradient-37" x1="1513.48" y1="-913.62" x2="1513.1" y2="-882.72" gradientTransform="translate(-1370.97 269.87) rotate(33.89)" xlink:href="#linear-gradient-7"/>
    <linearGradient id="linear-gradient-38" x1="-3194.13" y1="-1037.76" x2="-3202.47" y2="-1058.96" xlink:href="#linear-gradient-36"/>
    <linearGradient id="linear-gradient-39" x1="-3202.29" y1="-1050.5" x2="-3201.86" y2="-1046.66" gradientTransform="translate(-2786.92 -750.01) rotate(-142.61) scale(1 -1)" gradientUnits="userSpaceOnUse">
      <stop offset="0" stop-color="#fcc345"/>
      <stop offset="1" stop-color="#ee7058"/>
    </linearGradient>
    <linearGradient id="linear-gradient-40" x1="367.33" y1="423.39" x2="431.55" y2="423.39" gradientUnits="userSpaceOnUse">
      <stop offset=".49" stop-color="#ebeff2"/>
      <stop offset="1" stop-color="#fff"/>
    </linearGradient>
  </defs>
  <g class="cls-51">
    <g id="Ebene_1" data-name="Ebene 1">
      <g id="Responsive_web_design" data-name="Responsive web design">
        <path class="cls-49" d="M239.15,123.87c-49.76.85-126.74,19.22-148.89,66.41-7.74,16.48-7.21,40.72-6.17,89.18.31,14.24.82,35.01,4.41,60.77,7.45,53.51,12.52,89.95,31.72,111.16,48.1,53.15,221.83,51.62,296.03-44.08,40.47-52.2,46.7-126.46,9.69-187.83-40.74-67.57-120.17-96.76-186.78-95.61Z"/>
        <g>
          <g>
            <path class="cls-3" d="M198.92,327.61c-1.4,6-3.22,10.77-4.86,16.56,25.39-4.02,50.59-3.19,76.34-7.21-19.35-27.73-36.27-39.08-29.79-77.87,3.04-18.2,14.32-53.17,5.61-69.78-9.92-18.92-23.41-12.55-21.37-30.57,3.18-28.15-12.77-56.03-48.83-40.94-35.59,14.89-24.69,115.3-1.2,140.7,15.7,25.66,31.41,37.8,24.1,69.11Z"/>
            <g class="cls-1">
              <g>
                <path class="cls-47" d="M233.31,337.38c-2.8-9.15-6.34-18.19-9.76-26.93l-1.3-3.31c-2.74-7.03-5.07-13.37-7.13-18.96-1.16-3.15-2.25-6.12-3.33-8.99-3.29-8.74-5.62-14.86-6.78-17.92-.4-1.05-.66-1.75-.78-2.06-9.06-24.07-12.61-60.14-14.52-79.53-.21-2.1-.39-3.98-.56-5.59-2.88-27.68-9.17-56.14-18.68-84.58l.38-.13c9.52,28.47,15.81,56.95,18.7,84.66.17,1.61.35,3.49.56,5.59,1.91,19.36,5.45,55.41,14.5,79.42.12.32.38,1.01.78,2.06,1.17,3.07,3.49,9.19,6.78,17.92,1.08,2.87,2.18,5.84,3.33,8.99,2.06,5.59,4.38,11.92,7.13,18.95l1.3,3.31c3.43,8.75,6.97,17.8,9.77,26.96l-.38.12Z"/>
                <path class="cls-47" d="M216.2,293.01c-5.24-16.19-4.93-37.33.88-61.15,4.84-19.84,13.44-40.88,23.58-57.71l.34.21c-10.12,16.8-18.69,37.79-23.53,57.6-5.8,23.75-6.1,44.82-.89,60.93l-.38.13Z"/>
                <path class="cls-47" d="M190.39,182.86l-.4-.06c2.22-14.56,6.28-28.92,10.2-42.81,2.69-9.51,5.46-19.34,7.63-29.15l.39.09c-2.17,9.83-4.95,19.66-7.64,29.18-3.92,13.88-7.97,28.22-10.19,42.76Z"/>
                <path class="cls-47" d="M196.45,230.11c-9.58-18.07-30.53-37.89-44.83-42.4l.12-.39c14.38,4.54,35.44,24.44,45.06,42.59l-.35.19Z"/>
              </g>
            </g>
          </g>
          <g>
            <path class="cls-36" d="M177.7,244.56c7.08,34.65,26.87,27.11,52.55,18.61-4.3,32.66-7.3,64.62-10.23,97.07-17.27,5.43-29.74,9-39.52-10.86-11.06-22.46-16.71-35.79-43.52-41.23-26.82-5.44-47.2-25.25-38.34-51.38,9.32-27.5-14.31-63.15,8.39-83.23,39.56-35,63.3,34.95,70.67,71.02Z"/>
            <g class="cls-50">
              <g>
                <path class="cls-47" d="M217.59,318.58c-26.6-12.93-48.41-24.45-66.8-44.97-17.59-19.63-26.23-40.8-28.88-70.81-1.38-15.57-4.11-26.57-8.11-41.57l.39-.11c4.01,15.02,6.75,26.04,8.13,41.64,2.65,29.92,11.25,51.02,28.78,70.58,18.34,20.46,40.11,31.96,66.67,44.87l-.17.37Z"/>
                <path class="cls-47" d="M184,361.76l-.31-.26c6.12-7.62,12.72-13.81,20.17-18.94,3.81-2.62,7.72-4.41,12.42-6.28l.15.38c-4.67,1.86-8.56,3.63-12.34,6.23-7.42,5.11-13.99,11.28-20.08,18.86Z"/>
                <path class="cls-47" d="M162.68,285.43c-20.1-9.82-45.04-12.13-70.22-6.51l-.09-.4c25.27-5.64,50.3-3.32,70.48,6.54l-.18.36Z"/>
                <path class="cls-47" d="M128.02,234.81c-.32-2.63,3.07-24.68,6.35-44.44,3.29-19.83,7.09-41.14,7.75-42.46l.36.18c-.57,1.13-4.03,20.13-7.72,42.35-3.27,19.73-6.66,41.73-6.35,44.32l-.4.05Z"/>
              </g>
            </g>
          </g>
        </g>
        <g>
          <path class="cls-46" d="M336.4,376c-4.51-1.51-7.87-5.37-8.82-10.12l-6.56-32.78-56.1,2.01-6.9,34.15c-.97,4.78,2.9,9.58,7.36,11.34l23.47,9.27c4.37,1.73,9.06,2.41,13.72,2.01l49.6-4.29c1.45-.13,2.61-1.28,2.78-2.75.17-1.48,1.18-3.14-.2-3.6l-18.36-5.25Z"/>
          <path class="cls-37" d="M336.96,374c-4.5-1.49-7.87-5.3-8.81-9.99l-6.55-32.37-54.73,1.99-6.9,33.72c-.97,4.72,1.59,9.46,6.04,11.2l23.45,9.16c4.36,1.7,9.05,2.38,13.71,1.98l49.55-4.23c1.45-.12,2.61-1.26,2.78-2.72.17-1.46-.7-2.83-2.08-3.29l-16.45-5.45Z"/>
          <path class="cls-35" d="M426.55,310.31v-146.99c0-3.01-2.46-5.58-5.47-5.7l-250.05-10.15c-3.8-.15-6.93,2.5-6.93,5.9v162.45l262.45-5.5Z"/>
          <g>
            <path class="cls-48" d="M171.83,175.97v126.89c0,3.17,2.9,5.68,6.43,5.57l237.31-6.82c2.83-.08,5.14-2.46,5.14-5.28v-113.17l-248.89-7.19Z"/>
            <path class="cls-41" d="M420.72,183.16v-12.99c0-2.77-2.26-5.12-5.04-5.22l-237.55-8.95c-3.46-.13-6.3,2.3-6.3,5.4v14.56l248.89,7.19Z"/>
            <g>
              <path class="cls-45" d="M189.2,166.09c0,1.09-.98,1.94-2.2,1.9-1.22-.04-2.21-.96-2.21-2.05s.99-1.95,2.21-1.9c1.22.04,2.2.96,2.2,2.05Z"/>
              <path class="cls-45" d="M198.68,166.41c0,1.08-.97,1.93-2.17,1.89-1.2-.04-2.18-.95-2.18-2.04s.98-1.93,2.18-1.89c1.2.04,2.17.95,2.17,2.04Z"/>
              <path class="cls-45" d="M208.05,166.72c0,1.08-.96,1.92-2.15,1.88-1.19-.04-2.15-.94-2.15-2.03s.97-1.92,2.15-1.88c1.19.04,2.15.95,2.15,2.03Z"/>
            </g>
          </g>
          <path class="cls-42" d="M164.1,315.81v32.44c0,3.4,3.12,6.05,6.93,5.89l250.05-10.68c3.01-.13,5.47-2.7,5.47-5.71v-28.39l-262.45,6.45Z"/>
          <g>
            <polygon class="cls-40" points="327.93 247.09 190.05 247.84 190.05 189.7 327.93 192.23 327.93 247.09"/>
            <polygon class="cls-38" points="405.79 246.66 336.02 247.04 336.02 192.38 405.79 193.66 405.79 246.66"/>
            <polygon class="cls-39" points="405.79 286 190.05 291 190.05 255.44 405.79 253.58 405.79 286"/>
          </g>
          <g class="cls-52">
            <path class="cls-48" d="M399.46,291.33c-20.54-7.01-37.53,7.28-52.29-3.97-16.64-12.68-3.19-37.05-18.59-51.41-21.39-19.94-64.14,10.98-82.71-7.82-12.77-12.93,2.29-33.62-8.52-55.39-5.5-11.07-15.8-18.61-28.3-23.74l-38.04-1.54c-3.8-.15-6.93,2.5-6.93,5.9v194.89c0,3.4,3.12,6.05,6.93,5.89l250.05-10.68c3.01-.13,5.47-2.7,5.47-5.71v-20.98c-8.81-15.72-18.53-22.53-27.08-25.44Z"/>
          </g>
        </g>
        <g>
          <g>
            <g>
              <path class="cls-21" d="M235.18,289.54v170.05c0,2.54-2.76,3.29-5.88,3.6l-108.1,12.21-1.65.16c-3.39.33-6.17-1.57-6.17-4.23v-177.69c0-2.66,2.78-4.92,6.17-5.03l2.24-.07,108.48.36c3.13-.1,4.91-1.9,4.91.65Z"/>
              <path class="cls-18" d="M238.52,289.35v170c0,2.54-2.55,4.87-5.67,5.18l-109.89,10.78c-3.39.33-6.17-1.57-6.17-4.22v-177.64c0-2.66,2.78-4.92,6.17-5.03l109.89-3.51c3.12-.1,5.67,1.9,5.67,4.44Z"/>
              <g>
                <path class="cls-48" d="M125.33,298.47l104.75-3.69c2.67-.09,4.88,2.06,4.88,4.76l.2,156.09c0,2.93-2.2,5.38-5.09,5.67l-104.44,10.24c-2.67.26-4.98-1.86-4.98-4.56l-.04-163.56c0-2.66,2.08-4.84,4.72-4.93Z"/>
                <polygon class="cls-19" points="128.89 337.38 188.5 334.48 188.54 390.88 128.91 395.02 128.89 337.38"/>
                <polygon class="cls-20" points="128.91 402.28 227.46 395.17 227.5 429.05 128.92 437.42 128.91 402.28"/>
                <path class="cls-29" d="M125.76,298.36l104.28-3.59c2.71-.09,4.95,2.1,4.96,4.83l.03,23.22-114.4,5.15v-24.25c0-2.9,2.27-5.27,5.13-5.37Z"/>
                <polygon class="cls-25" points="128.92 445.18 227.5 436.54 227.52 451.82 128.93 461.03 128.92 445.18"/>
                <polygon class="cls-23" points="193.99 334.22 227.4 332.59 227.45 388.17 194.04 390.49 193.99 334.22"/>
              </g>
            </g>
            <path class="cls-43" d="M181.03,291.8c0,.9-.91,1.66-2.04,1.7-1.13.04-2.04-.66-2.04-1.56s.92-1.66,2.04-1.7c1.13-.04,2.04.66,2.04,1.56Z"/>
          </g>
          <g class="cls-52">
            <path class="cls-48" d="M202.99,387.18c-10-20.26-33.36-15.43-42.14-37.52-5.24-13.18,1.28-19.43-2.64-35.52-2.66-10.88-8.46-19.56-15.03-26.37l-20.23.65c-3.39.11-6.17,2.37-6.17,5.03v177.64c0,2.66,2.78,4.56,6.17,4.22l88.44-8.68c-6.55-9.19-9.35-17.83-10.36-25.33-3.13-23.26,10.85-36.13,1.97-54.13Z"/>
          </g>
        </g>
        <g>
          <g>
            <g>
              <path class="cls-22" d="M282.07,348v117.35c0,1.75-1.48,2.24-3.17,2.42l-58.01,7.25-.88.09c-1.81.19-3.3-1.14-3.3-2.97v-122.07c0-1.83,1.49-3.36,3.3-3.42l1.2-.04,58.22.9c1.68-.05,2.65-1.28,2.65.48Z"/>
              <path class="cls-28" d="M283.87,347.88v117.34c0,1.75-1.38,3.34-3.06,3.51l-58.99,6.25c-1.81.19-3.3-1.14-3.3-2.97v-122.06c0-1.83,1.49-3.36,3.3-3.42l58.99-1.76c1.68-.05,3.06,1.34,3.06,3.1Z"/>
              <g>
                <path class="cls-48" d="M223.79,353.46l51.59-1.9c3.6-.13,6.6,2.78,6.6,6.42v105.14c0,1.72-1.29,3.17-2.99,3.35l-55.27,5.87c-1.68.18-3.14-1.15-3.14-2.85v-112.66c0-1.81,1.42-3.3,3.21-3.36Z"/>
                <g>
                  <polygon class="cls-24" points="227 381.45 257.4 379.83 257.4 418.92 227 421.25 227 381.45"/>
                  <polygon class="cls-31" points="227 426.25 275.96 422.36 275.96 445.9 227 450.49 227 426.25"/>
                  <polygon class="cls-27" points="227 454.77 275.96 450.05 275.96 460.67 227 465.69 227 454.77"/>
                  <polygon class="cls-30" points="260.67 379.66 275.96 378.84 275.96 417.49 260.67 418.67 260.67 379.66"/>
                </g>
                <path class="cls-26" d="M223.54,353.47l55.11-2.03c1.82-.07,3.33,1.4,3.33,3.24v16.27s-61.4,2.99-61.4,2.99v-17.37c0-1.67,1.31-3.04,2.96-3.1Z"/>
              </g>
            </g>
            <path class="cls-43" d="M252.94,349.23c0,.62-.49,1.14-1.1,1.16-.61.02-1.1-.47-1.1-1.09s.49-1.14,1.1-1.16c.61-.02,1.1.47,1.1,1.09Z"/>
          </g>
          <g class="cls-52">
            <path class="cls-48" d="M264.69,418.16c-5.38-13.67-19.89-10.44-24.41-24.25-3.69-11.27,4.52-17.88,1.3-30.93-1.8-7.32-6.24-12.77-10.77-16.7l-8.99.27c-1.81.05-3.3,1.59-3.3,3.42v122.06c0,1.83,1.49,3.16,3.3,2.97l45.22-4.79c-3.63-5.78-5.09-11.06-5.6-15.44-1.87-15.96,8.18-24.07,3.25-36.59Z"/>
          </g>
        </g>
        <g>
          <polygon class="cls-32" points="385.59 437.22 451.83 420.49 455.14 436.74 394.5 465.01 346.48 453.03 317.52 424.31 385.59 437.22"/>
          <polygon class="cls-17" points="385.59 437.22 451.83 420.49 455.14 436.74 394.5 465.01 346.48 453.03 317.52 424.31 385.59 437.22"/>
          <path class="cls-33" d="M383.51,459.72c13.17-7.13,22.89-14.39,29.49-19.88,12.99-10.8,18.94-18.94,32.09-22.16,2.35-.58,15.74-3.85,20.06,2.15,4.78,6.65-4.52,20.55-5.65,22.24-16.8,25.11-59.57,23.94-72.99,23.12-1-1.82-2-3.65-3-5.47Z"/>
          <path class="cls-5" d="M465.14,419.83c-1.26-1.75-3.31-2.7-5.62-3.17.77,2.69.84,5.21-.12,7.41-2.62,6.02-10.4,4.17-15.86,11.23-5.36,6.94-1.65,13.63-6.39,16.49-5.43,3.28-12.17-4.38-17.99-.72-3.96,2.49-2.73,7.22-7.34,9.8-3.19,1.78-6.31.94-9.94.48-4.16-.53-9.86-.64-17.01.87.54.99,1.09,1.98,1.63,2.96,13.42.81,56.19,1.99,72.99-23.12,1.13-1.69,10.43-15.59,5.65-22.24Z"/>
          <path class="cls-16" d="M393.46,463.47s2.41-1.75,5.91-.56c3.5,1.19,9.06,2.15,9.05,3.88,0,1.73-5.57,2.81-9.41,2.1-3.68-.68-6.57-3.91-5.55-5.42Z"/>
          <path class="cls-8" d="M389.93,460.52l6.44,2.09s1.05,1.76-.37,2.88c-1.41,1.12-6.32-1.24-6.32-1.24l.24-3.73Z"/>
          <path class="cls-9" d="M300.38,430.53c-1.9,11.19,22,23.29,27.47,26.06,11.15,5.65,32.14,13.61,63.28,10.57.41-2.51.83-5.02,1.24-7.53-4.11-1.42-10.21-3.74-17.29-7.25-12.07-6-16.66-10.28-33.41-20.51-18.54-11.32-23.94-12.77-29.46-11.37-4.72,1.2-10.95,4.84-11.83,10.04Z"/>
          <path class="cls-10" d="M325.28,409.26c-4.04-14.76,2.63-34.67,16.68-44.27,11.47-7.84,24.91-7.33,29.11-7.17,4.59.17,4.12.78,18.57,3.48,20.06,3.75,21.92,2.84,27.75,5.67,10.98,5.31,16.3,14.96,17.3,16.84,5.1,9.61,9.25,27.48-.44,36.22-5.51,4.97-13.23,4.95-17.57,4.48-.3-1.97-.59-3.94-.89-5.92.88-.69,6.1-4.91,6.74-12.37.74-8.57-5.19-14.1-5.86-14.7-2.1,4.1-4.69,10.33-5.86,18.28-1.51,10.28.05,18.73,1.37,23.7-5.31,2.94-14.08,6.93-25.51,8.21-8.61.96-19.27,2.15-26.09-3.23-9.62-7.59-10.43-27.36-.93-47.94-3.48,2.35-8.51,6.61-10.6,13.34-.32,1.02-.85,3.02-1.06,10.75-.38,13.9-18.53,9.92-22.72-5.38Z"/>
          <path class="cls-4" d="M390.42,419.47c-4.84.6-6.16,5.67-10.65,5.38-9.77-.65-17.62-17.73-13.49-27.07,2.69-6.09,9.71-7.15,9.23-11.11-.38-3.17-5.25-5.62-9.23-5.74-6.19-.19-10.28,5.26-11.71,7.17-3.35,4.47-4.08,9.37-4.15,12.52,2.46-4.87,6.38-8.15,9.25-10.09-9.5,20.58-8.69,40.35.93,47.94,6.82,5.38,17.48,4.19,26.09,3.23,9.28-1.04,16.8-3.86,22.15-6.46-5.19-8.54-11.81-16.59-18.42-15.77Z"/>
          <polygon class="cls-7" points="407.29 433.4 350.65 432.54 365.71 439.88 407.43 437.12 407.29 433.4"/>
          <path class="cls-44" d="M348.65,434.06h0c0,1.07.66,2.03,1.66,2.39l18.1,7.17.08-4.97-17.84-6.11c-1-.29-2,.47-2,1.52Z"/>
          <path class="cls-13" d="M328.02,399.42c4.37-4.18,15.09-1.55,19.09,4.46,2.94,4.42.51,8.06,2.66,13.62,2.64,6.82,12.6,12.99,18.72,15.04-.96,2.08-.68,2.62-1.63,4.7-3.89-.49-32.03-4.84-38.91-21.72-.36-.88-4.61-11.63.08-16.11Z"/>
          <path class="cls-15" d="M391.89,355.38s-4.58,5-8.38,5.52c-3.8.52-9.3-.5-10.24,0-.95.5,4.77,2.55,9.31,3.81,4.54,1.26,12.78,3.77,15.06,3.22,2.28-.55-2.49-3.5-4.38-4.28-1.89-.78.81-4.8.81-4.8l-2.18-3.47Z"/>
          <g>
            <path class="cls-11" d="M398.69,358.24c1.66-.46,3.17-2.34,3.15-4.28-.02-1.67-1.18-2.82-1.88-3.5-2.02-1.98-5.53-3.22-8.07-1.92-1.51.77-2.2,4.28-2.35,4.89-.17.69.09,1.18.17,1.85.1.94.25,2.43.47,4.88.43-.34.98-.75,1.66-1.13.26-.15,1.3-.7,2.41-.97,2.24-.52,2.87.61,4.44.17Z"/>
            <path class="cls-14" d="M389.22,357.49s-.38,3.55,2.66,5.61c2.73,1.85,7.59-3.74,6.89-6.27-.24-.85-1.21-1.88-2.31-2.33-.65-.26-1-.18-2.05-.63-.97-.42-1.13-.68-1.53-.67-.5.02-1.21.48-2.01,2.6-.11-.89-.56-1.55-1.13-1.68-.09-.02-.36-.04-.61.07-.88.39-.92,1.72.08,3.29Z"/>
            <path class="cls-6" d="M393.04,352.76c.05.19-.69.37-1.23,1.01-1.04,1.25-.93,3.82.29,4.98.72.69,1.3.38,2.7,1.25.87.54,1.46,1.16,1.81,1.58-.68,1.74-2.14,2.86-3.58,2.78-1.55-.08-2.52-1.52-2.92-2.12-.27-.4-1.14-1.69-.92-3.23.22-1.61,1.36-1.8,1.21-3.12-.07-.67-.43-1.21-.33-2.31.03-.3.08-.54.12-.7,1.22-.2,2.79-.4,2.86-.12Z"/>
            <path class="cls-12" d="M395.27,361.38s-.79-.14-1.71-.95c-.05-.04-.11-.07-.13-.05-.09.08.21.98.91,1.26.49.2,1.11.06,1.13-.08,0-.06-.09-.13-.19-.18Z"/>
          </g>
          <g>
            <path class="cls-44" d="M369.99,403.8l-3.99,36.71c-.14,1.27,1.62,3.15,2.88,3.09l58.57-3.63c.96-.05,1.76-.76,1.93-1.72l7.35-35.46c.22-1.29-2.08-2.62-3.37-2.59l-61.37,1.74c-1.02.03-1.87.82-1.98,1.85Z"/>
            <path class="cls-48" d="M371.33,404.87l-3.99,36.71c-.14,1.27.88,2.36,2.14,2.3l59.31-2.84c.96-.05,1.76-.76,1.93-1.72l6.06-35.62c.22-1.29-.79-2.46-2.08-2.42l-61.37,1.74c-1.02.03-1.87.82-1.98,1.85Z"/>
          </g>
          <path class="cls-34" d="M406.16,432.44c-5.18-2.22-3.35-6.44-9.47-11.71-8.07-6.95-16.29-3.94-19.17-9.32-.9-1.68-1.32-4.29.24-8.51l-4.44.13c-1.02.03-1.87.82-1.98,1.85l-3.99,36.71c-.14,1.27.88,2.36,2.14,2.3l59.31-2.84c.96-.05,1.76-.76,1.93-1.72l.84-4.92c-1.8-1.01-3.95-1.93-6.46-2.44-8.7-1.78-12.97,3.03-18.93.48Z"/>
        </g>
      </g>
    </g>
  </g>
</svg>