<?xml version="1.0" encoding="UTF-8"?>
<svg id="Ebene_1" data-name="Ebene 1" xmlns="http://www.w3.org/2000/svg" xmlns:xlink="http://www.w3.org/1999/xlink" viewBox="0 0 550 600">
  <defs>
    <style>
      .cls-1 {
        clip-path: url(#clippath);
      }

      .cls-2 {
        fill: none;
      }

      .cls-2, .cls-3 {
        stroke-width: 0px;
      }

      .cls-4 {
        clip-path: url(#clippath-1);
      }

      .cls-5 {
        fill: #fff;
        stroke: #1d1d1b;
        stroke-miterlimit: 10;
      }

      .cls-3 {
        fill: #103a5d;
      }
    </style>
    <clipPath id="clippath">
      <rect class="cls-2" x="79.32" y="185.59" width="391.36" height="228.83"/>
    </clipPath>
    <clipPath id="clippath-1">
      <rect class="cls-2" x="79.32" y="185.59" width="391.36" height="228.83"/>
    </clipPath>
  </defs>
  <rect class="cls-5" width="550" height="600"/>
  <g>
    <g class="cls-1">
      <path class="cls-3" d="M172.41,409.84c-9.54,0-15.95-7.83-15.95-19.49s6.41-19.49,15.95-19.49,15.96,7.83,15.96,19.49-6.41,19.49-15.96,19.49M172.41,366.29c-16.3,0-22.08,12.96-22.08,24.06s5.78,24.06,22.08,24.06,22.08-12.96,22.08-24.06-5.78-24.06-22.08-24.06"/>
    </g>
    <path class="cls-3" d="M205.09,374.74v-7.54h-5.19v45.95h5.57v-22.99c0-8.46,2.4-18.58,13.82-18.58l1.74.08.02-.18.28-5.36h-.65c-7.72,0-12.95,2.91-15.58,8.62"/>
    <path class="cls-3" d="M318.08,376.16c-3.83-1.26-6.64-2-11.21-2-3.37,0-7.38,1.18-7.38,5.17,0,7.44,21.77,2.72,21.77,19.59,0,10.89-10,15.25-20.18,15.25-4.77,0-9.63-.81-14.21-1.99l.75-9.99c3.92,1.9,8.04,3.09,12.33,3.09,3.18,0,8.23-1.18,8.23-5.72,0-9.16-21.78-2.9-21.78-19.78,0-10.07,9.07-14.52,18.88-14.52,5.89,0,9.72.91,13.65,1.73l-.84,9.16h0Z"/>
    <polygon class="cls-3" points="376.39 366.42 388.92 366.42 388.92 413.15 376.39 413.15 376.39 366.42 376.39 366.42"/>
    <path class="cls-3" d="M467.25,376.16c-3.83-1.26-6.63-2-11.21-2-3.37,0-7.38,1.18-7.38,5.17,0,7.44,21.77,2.72,21.77,19.59,0,10.89-10,15.25-20.18,15.25-4.77,0-9.63-.81-14.21-1.99l.75-9.99c3.92,1.9,8.04,3.09,12.33,3.09,3.18,0,8.23-1.18,8.23-5.72,0-9.16-21.78-2.9-21.78-19.78,0-10.07,9.07-14.52,18.88-14.52,5.89,0,9.71.91,13.64,1.73l-.84,9.16h0Z"/>
    <polygon class="cls-3" points="351.93 387.37 369.67 366.42 354.9 366.42 339.95 385.11 339.76 385.11 339.76 341.28 327.24 345.1 327.24 413.15 339.76 413.15 339.76 390.47 339.95 390.47 356.03 413.15 371.91 413.15 351.93 387.37 351.93 387.37"/>
    <path class="cls-3" d="M259.27,409.67c-12.88,0-14.28-13.63-14.28-19.49s1.39-19.49,14.28-19.49c9.86,0,14.28,9.79,14.28,19.49s-4.42,19.49-14.28,19.49M278.88,343.84l-5.33,1.63v28.41c-1.16-1.94-5.5-7.89-15.21-7.77-16.08.2-19.46,13.2-19.46,24.06,0,14.84,7.46,24.06,19.46,24.06,7.15,0,11.99-2.63,15.21-8.22v7.13h5.56v-69.38l-.22.07h0Z"/>
    <polygon class="cls-3" points="232.46 343.85 227.12 345.47 227.12 413.15 232.68 413.15 232.68 343.77 232.46 343.85 232.46 343.85"/>
    <polygon class="cls-3" points="397 345.1 397 413.15 409.52 413.15 409.52 341.28 397 345.1 397 345.1"/>
    <polygon class="cls-3" points="416.73 345.1 416.73 345.1 416.73 413.15 429.25 413.15 429.25 341.28 416.73 345.1 416.73 345.1"/>
    <path class="cls-3" d="M389.89,348.98c0-3.86-3.13-6.98-6.98-6.98s-6.97,3.12-6.97,6.98,3.12,6.98,6.97,6.98,6.98-3.12,6.98-6.98"/>
    <g class="cls-4">
      <path class="cls-3" d="M85.29,367.21h-5.97l.07.23c.29.87,14.97,45.19,15.1,45.59l.04.12h6.87s12.91-39.77,12.99-40.02h.42c.08.24,12.99,40.02,12.99,40.02h6.87l15.59-45.95h-5.54s-13.1,39.78-13.18,40.01h-.43c-.07-.24-12.61-40.01-12.61-40.01h-6.87s-13.19,39.78-13.27,40.01h-.42c-.07-.24-12.52-40.01-12.52-40.01h-.13Z"/>
      <path class="cls-3" d="M365.16,264.79s21.99-3.89,29.19-21.38c0,0,128.04,26.23,52.45,94.52,0,0,28.05-26.41,12.38-47.54,0,0,8.74,26.23-25.5,43.89,0,0,74.26-52.75-68.53-69.5"/>
      <path class="cls-3" d="M435.32,255.22c8.95,4.43,15.22,8.78,18.89,11.64,1.61-45.84-31.26-71.46-31.26-71.46-.95,2.94-3.82,6.22-7.92,7.72-4.1,1.5-6.56,6.42-6.56,6.42,16.06,13.36,23.78,29.67,26.85,45.69"/>
      <path class="cls-3" d="M390.95,246.66c1.94-2.9,2.48-4.89,2.48-4.89,8.46,1.5,16.06,3.49,22.82,5.7-14.03-40-40.12-61.89-40.12-61.89-.73,2.09-8.38,5.92-13.57,8.2-5.19,2.28-3.82,11.93-3.82,11.93,14.27,11.79,24.65,26.22,32.21,40.95"/>
    </g>
    <path class="cls-3" d="M444.62,290.97c-1.76,19.73-13.48,40.69-13.48,40.69,8.27-12.59,13.93-24.4,17.59-35.41-1.03-1.86-2.41-3.62-4.1-5.27"/>
    <path class="cls-3" d="M443.09,289.56c-1.93-1.66-4.16-3.21-6.64-4.67-2.06,21.23-9.14,37.19-9.14,37.19,4.1-4.65,7.24-12.16,7.24-12.16.14,5.33-4.24,15.84-4.24,15.84,7.52-12.08,11.12-26.76,12.77-36.21"/>
    <path class="cls-3" d="M398.65,330.91c-4.55-2.45-11.15-5.06-24.72-15.57,10.27,7.73,27.42,12.67,27.42,12.67-37.86-19.21-46.11-36.63-46.11-36.63-3.64-.12-5.84,2.19-7.28,2.99-1.44.79-5.38.72-5.38.72,14.43,23.26,56.08,35.82,56.08,35.82h0Z"/>
    <path class="cls-3" d="M381.72,268.29c-12.58-2.08-21.82-2.89-21.82-2.89,5.03-1.26,9.31-2.8,12.96-4.47-17.7-12.89-35.34-16.07-35.34-16.07,0,0-3.28,1.09-3.73,6.56-.45,5.46-4.64,6.19-4.64,6.19,66.11,17.67,76.04,72.12,76.04,72.12-4.51-24.59-14.07-40.3-14.07-40.3,10.11,10.38,17.07,36.75,17.07,36.75-2.24-27.25-13.54-45.62-26.47-57.9"/>
    <path class="cls-3" d="M401.5,272.23c9.52,29.37,9.7,54.23,9.7,54.23,7.04-13.66,5.19-45.08,5.19-45.08,6.56,12.84,5.74,47.81,5.74,47.81,3.36-18.38,3.49-35.18,1.56-50.3-6.98-2.68-14.65-4.87-22.19-6.66"/>
  </g>
</svg>